<mxfile host="app.diagrams.net" agent="Mozilla/5.0 (X11; Linux x86_64; rv:141.0) Gecko/20100101 Firefox/141.0" version="28.0.7">
  <diagram name="Page-1" id="9ixbMLwkYsStdc26DxR0">
    <mxGraphModel dx="1090" dy="604" grid="0" gridSize="10" guides="1" tooltips="1" connect="1" arrows="1" fold="1" page="1" pageScale="1" pageWidth="850" pageHeight="1100" background="#023047" math="0" shadow="0">
      <root>
        <mxCell id="0" />
        <mxCell id="1" parent="0" />
        <mxCell id="1TXEtfgUbeghGvBHldOa-24" value="twhat" style="rounded=0;whiteSpace=wrap;html=1;fontColor=none;labelBackgroundColor=none;noLabel=1;strokeColor=#F6F6F6;fillColor=none;dashed=1;dashPattern=8 8;strokeWidth=3;" vertex="1" parent="1">
          <mxGeometry x="35" y="106" width="1100" height="399" as="geometry" />
        </mxCell>
        <mxCell id="1TXEtfgUbeghGvBHldOa-2" value="&lt;font style=&quot;font-size: 18px;&quot;&gt;Find a problem&lt;br&gt;Organize team&lt;br&gt;&lt;/font&gt;&lt;div&gt;&lt;font style=&quot;font-size: 18px;&quot;&gt;Select tools&lt;/font&gt;&lt;/div&gt;&lt;div&gt;&lt;font style=&quot;font-size: 18px;&quot;&gt;Design strategy&lt;/font&gt;&lt;/div&gt;" style="rounded=0;whiteSpace=wrap;html=1;fontFamily=arial;fillColor=#FB8500;" vertex="1" parent="1">
          <mxGeometry x="50" y="157" width="145" height="110" as="geometry" />
        </mxCell>
        <mxCell id="1TXEtfgUbeghGvBHldOa-3" value="Phase I:&lt;br&gt;R&amp;amp;D" style="text;html=1;align=center;verticalAlign=middle;whiteSpace=wrap;rounded=0;fontStyle=1;fontColor=#FFFFFF;fontFamily=arial;fontSize=27;" vertex="1" parent="1">
          <mxGeometry x="44" y="293" width="157" height="84" as="geometry" />
        </mxCell>
        <mxCell id="1TXEtfgUbeghGvBHldOa-6" value="Design algorithm&lt;br&gt;Build hardware system&lt;br&gt;Basic visualization&lt;br&gt;Design prototype&lt;br&gt;Document" style="rounded=0;whiteSpace=wrap;html=1;fontSize=14;fontFamily=arial;fontColor=#000000;fillColor=#FFB703;" vertex="1" parent="1">
          <mxGeometry x="274" y="157" width="145" height="110" as="geometry" />
        </mxCell>
        <mxCell id="1TXEtfgUbeghGvBHldOa-7" value="Phase II: Prove of concept" style="text;html=1;align=center;verticalAlign=middle;whiteSpace=wrap;rounded=0;fontStyle=1;fontColor=#FFFFFF;fontFamily=arial;fontSize=27;" vertex="1" parent="1">
          <mxGeometry x="257" y="276.5" width="157" height="117" as="geometry" />
        </mxCell>
        <mxCell id="1TXEtfgUbeghGvBHldOa-8" value="Integration&lt;br&gt;Testing&lt;br&gt;Error handling&lt;br&gt;Optimizations" style="rounded=0;whiteSpace=wrap;html=1;fontSize=14;fontFamily=arial;fontColor=#000000;fillColor=#219EBC;gradientColor=none;" vertex="1" parent="1">
          <mxGeometry x="494" y="157" width="145" height="110" as="geometry" />
        </mxCell>
        <mxCell id="1TXEtfgUbeghGvBHldOa-9" value="Phase III: Demo and real problems" style="text;html=1;align=center;verticalAlign=middle;whiteSpace=wrap;rounded=0;fontStyle=1;fontColor=#FFFFFF;fontFamily=arial;fontSize=27;" vertex="1" parent="1">
          <mxGeometry x="470" y="276.5" width="193" height="117" as="geometry" />
        </mxCell>
        <mxCell id="1TXEtfgUbeghGvBHldOa-10" value="Optimize cameras&lt;br&gt;Optimize sensors&lt;br&gt;Fix problems&lt;br&gt;Make display architecture" style="rounded=0;whiteSpace=wrap;html=1;fontSize=14;fontFamily=arial;fontColor=#000000;fillColor=#8ECAE6;gradientColor=none;" vertex="1" parent="1">
          <mxGeometry x="723" y="157" width="145" height="110" as="geometry" />
        </mxCell>
        <mxCell id="1TXEtfgUbeghGvBHldOa-11" value="Phase IV:&lt;br&gt;Fine tune" style="text;html=1;align=center;verticalAlign=middle;whiteSpace=wrap;rounded=0;fontStyle=1;fontColor=#FFFFFF;fontFamily=arial;fontSize=27;" vertex="1" parent="1">
          <mxGeometry x="699" y="276.5" width="193" height="117" as="geometry" />
        </mxCell>
        <mxCell id="1TXEtfgUbeghGvBHldOa-12" value="&lt;div&gt;Presentation&lt;/div&gt;&lt;div&gt;Advertisement materials&amp;nbsp;&lt;/div&gt;&lt;div&gt;Setup demonstrations&lt;/div&gt;" style="rounded=0;whiteSpace=wrap;html=1;fontSize=14;fontFamily=arial;fontColor=#000000;" vertex="1" parent="1">
          <mxGeometry x="946" y="157" width="145" height="110" as="geometry" />
        </mxCell>
        <mxCell id="1TXEtfgUbeghGvBHldOa-13" value="Phase V:&lt;br&gt;Presentation" style="text;html=1;align=center;verticalAlign=middle;whiteSpace=wrap;rounded=0;fontStyle=1;fontColor=#FFFFFF;fontFamily=arial;fontSize=27;" vertex="1" parent="1">
          <mxGeometry x="922" y="276.5" width="193" height="117" as="geometry" />
        </mxCell>
        <mxCell id="1TXEtfgUbeghGvBHldOa-17" value="" style="shape=flexArrow;endArrow=classic;html=1;rounded=0;fontColor=none;noLabel=1;strokeColor=#FFFFFF;fillColor=#FFB703;gradientColor=#FB8500;entryX=0;entryY=0.5;entryDx=0;entryDy=0;exitX=1;exitY=0.5;exitDx=0;exitDy=0;fontFamily=arial;gradientDirection=west;" edge="1" parent="1" source="1TXEtfgUbeghGvBHldOa-2" target="1TXEtfgUbeghGvBHldOa-6">
          <mxGeometry width="50" height="50" relative="1" as="geometry">
            <mxPoint x="219" y="336" as="sourcePoint" />
            <mxPoint x="269" y="286" as="targetPoint" />
          </mxGeometry>
        </mxCell>
        <mxCell id="1TXEtfgUbeghGvBHldOa-18" value="" style="shape=flexArrow;endArrow=classic;html=1;rounded=0;fontColor=none;noLabel=1;strokeColor=#FFFFFF;fillColor=#219EBC;gradientColor=#FFB703;exitX=1;exitY=0.5;exitDx=0;exitDy=0;entryX=0;entryY=0.5;entryDx=0;entryDy=0;fontFamily=arial;gradientDirection=west;" edge="1" parent="1" source="1TXEtfgUbeghGvBHldOa-6" target="1TXEtfgUbeghGvBHldOa-8">
          <mxGeometry width="50" height="50" relative="1" as="geometry">
            <mxPoint x="444" y="208" as="sourcePoint" />
            <mxPoint x="481" y="228" as="targetPoint" />
          </mxGeometry>
        </mxCell>
        <mxCell id="1TXEtfgUbeghGvBHldOa-19" value="" style="shape=flexArrow;endArrow=classic;html=1;rounded=0;fontColor=none;noLabel=1;strokeColor=#FFFFFF;fillColor=#8ECAE6;gradientColor=#219EBC;exitX=1;exitY=0.5;exitDx=0;exitDy=0;fontFamily=arial;gradientDirection=west;" edge="1" parent="1" source="1TXEtfgUbeghGvBHldOa-8" target="1TXEtfgUbeghGvBHldOa-10">
          <mxGeometry width="50" height="50" relative="1" as="geometry">
            <mxPoint x="482" y="227" as="sourcePoint" />
            <mxPoint x="583" y="227" as="targetPoint" />
          </mxGeometry>
        </mxCell>
        <mxCell id="1TXEtfgUbeghGvBHldOa-20" value="" style="shape=flexArrow;endArrow=classic;html=1;rounded=0;fontColor=none;noLabel=1;strokeColor=#FFFFFF;fillColor=default;gradientColor=#8ECAE6;exitX=1;exitY=0.5;exitDx=0;exitDy=0;entryX=0;entryY=0.5;entryDx=0;entryDy=0;fontFamily=arial;gradientDirection=west;" edge="1" parent="1" source="1TXEtfgUbeghGvBHldOa-10" target="1TXEtfgUbeghGvBHldOa-12">
          <mxGeometry width="50" height="50" relative="1" as="geometry">
            <mxPoint x="815" y="228" as="sourcePoint" />
            <mxPoint x="902" y="225" as="targetPoint" />
          </mxGeometry>
        </mxCell>
        <mxCell id="1TXEtfgUbeghGvBHldOa-26" value="" style="shape=image;verticalLabelPosition=bottom;labelBackgroundColor=default;verticalAlign=top;aspect=fixed;imageAspect=0;image=data:image/png,iVBORw0KGgoAAAANSUhEUgAAAfQAAAH0CAYAAADL1t+KAAAgAElEQVR4Xuy9B3xcV5n3f84t00e9WLJkWZJbEuIktkOIYRMbCCSBBEKwWCALZJeld/7Asi9LeV94ly38gYVdOsmGQBabFkoCBLCBxGlyiAmx49iWbfVeps9t5/387p0jTxRbki2Nyuj5Jv5oJI1m7px77/md5zlP4YwgCIIgiGUPX/afgCAIgiAIEnSCIAiCKAbIQicIgiCIIoAEvbjB+RXF/REJgiAIQIJOEARBEEUACTpBEARBFAEk6ARBEARRBJCgEwRBEEQRQIJOEAQxMwpjzJn5aQSxeJCgEwRBEEQRQIJOEARBEEUACTpBEARBFAEk6ARBEARRBJCgEwRBEIWCqlUuICToBEEQBFEEkKATBEEQRBFAgl54KH+VIAiCKDgk6ARBEARRBJCgEwRBEEQRQIJOEARBEEUACTpBEARBFAEk6ARBEARRBJCgEwRBEEQRQIJOEARBEEUACTpBEARBFAEk6ARBEMRKoygLfpGgEwRBEEQRQIJOEARBEEUACTpBEARBFAEk6ARBEARRBJCgEwRBEEQRQIJOEARBEEUACTpBEARBFAEk6ARBEMR0QCcEDdHShwSdIAiCIIoAEnSCIAiCKAJI0AmCWCzIlUsQ8wgJOnE+FGUdZIIgiOUMCTpBEEsdsuQJYhaQoBMrBRIFgiCKGhJ0giAIgigCSNAJgiAIogggQScIgiCIIoAEnSAIgiCKABJ0giAIgigCSNAJgiAIogggQScIgiCIIoAEnSAIgiCKABJ0giAIgigCSNAJgiAIogggQScIgpgeakZELAtI0AmCIAiiCCBBJwiCIIgigASdIAiCIIoAEnSCIAiCKAJI0AmCIAiiCCBBJwiCIIgigASdIIjFAvOPWKw3J4higwSdIAiCIIoAEnSCIAiCKAJI0BcOqjZFEARBFAwSdIIgCIIoAkjQCYIgCKIIIEEnCIIgiCKABJ0gCIIgigASdIIgCIIoAkjQCYIgCKIIIEEnCIIgiCKABJ0gCIIgigASdIIgCIIoAkjQCYIgCKIIIEEnCIIgiCKABJ0gCIIgigASdIIgCIIoApayoFN3MoIgCIKYJUtZ0AmCIAiCmCUk6ARBEARRBJCgEwRBEEQRQIJOEARBEEUACTpBEARBFAEk6ARBEARRBJCgEwRBEEQRQIJOEARBEEUACTpBEARBFAEk6ARBEAQxPcuicikJOkEQBEEUASToBEEQBFEEkKATBEEQRBFAgk4QBEEQRQAJOkEQBEEUASToBEEQBFEEkKBPD8ZHFMF5JgiCIIocEnSCIAiCKAJI0AmCIIhiZMV5WEnQCYIgCKIIIEEnCIIgiCKABJ0gCIIgigASdIIgCIIoAkjQCYIgCKIIIEEnCIIgiCKABJ0gCIIgigASdIIgCIIoAkjQCYIgiMVCYYw5i/XmxQYJOkEQBEEUASToBEEQBFEEkKATxDJm9+7daltbGzoCktuSIFY4JOgEsTDw3bt3Y79Q3bVrl8oYU/bs2cPXr19fVVVVpeu6Hkgmk4FQKBThnEcVRQlqmqaHQqEqxhh3HEcJBoP4+/x/LJvNptDi1zRNS1EUy7ZtUwhhBgIB27Ztx7ZtI5lMmpqmpTjnSfyLx+MJVVUnVq9end2zZ4/R1tZmyjbBuQWCvTBDQhDEfEKCThDzwN69e7WysrJIfX19paaZNZoWXaeq6qpw2N/AmBJiTJQyxioYU6sZEzWMiQrGmO7p87OQFjesbnmP4iv+PeMPhBCMc+8pucf4W2ZZltA0DQ8hzngCFhFT73chhBjhnMctyxrWNG2EMTaSezyczWbjqVTqeDabHVq1atXAvn37Bnbu3JmZh+EiCKIAkKATxNmBeEL0Qvv27bMhZhDutWvXPqeuru4q3a8/x7GymzVNrWTMV8MYi3ii6Woq/nTG+yuTMVxBxj9FUdx/8vuzAeGWAo7np9NpFgwGmeM4k38rhd6yrMmf5Qs/novn6Lruvha+x2tJ8L37ATjPcM59QgiFc3exMGFZ1nFN0w4zxnpM0+zKZDI9AwMDx4LBYH9DQwMWBQRBLAIzTjgEsRJob2/XOzo6eFtbm4HHvmpfY9SJ1qxZu/pdCmMXZ03zOX494Akpc7gjHIge11XfpLjatj0ppFKcIahAivRUsRbCE/NnIARzcqItf5f/nKmCni/GpmkyWOZ4fiaTmXwsFwoSvAb+yWPOWfMu+BmEHseOn8fjcRaNRt2FA/D7/fIzYbGT/5myjLEB27afNgzjKb/f351IJPbGYrFxCD3nfHQlXEsEsViQoBMrmkdGHmlsEU3bSspL2nTFfwNjImhYJvNpus2Yopl2hiuKxhT3TlFYPDHBgsEw01SFWbbDVH5mixoii3+qCk+3J+hnwrOqVeYZvzIl1/sKsbdtc/L3Z3oexDcfvJ9t20K+71mQLoTJg8oJPIfwy9fEa+Rb/fmLAXwe/E3OknfFH8/HAgB/nzsOU1VV+P1dy940zV5d1/8ci8UeGh4efrC2trYzEokMrOgLkCDmERJ0oiiBlb1166Cyb18wODQ0FN+yZUtleXnJVZFI6et8Pt9LGGNBIUSWcw5zU5hmVpWCCQGHwKbTWRYM+nNWtHDd44EALHKFWZbhWb05N7Xt2ExVVGZaJtM1nQkmGM/dXoZpPMMCVrji/h7WNBYEEEHLNhgT7mNvD9w2mKYGbMYcJSf0acaUCcbMMcb4OGM8wRhLOw4fzGazpq7r2NtOp9PpBOc8ZRhGBkFyCJAzDMNRFMX2+Xx2PB539+VDoRC3bRsmdlBVVbjTNcdxtEAgoFmWpVuWpfr9flXTtNXBYNBnmmZI1/USy7LKNE0rY4yFhBB+znktYwyiLff48fr4DJr0AuCrXGDAa+D3+53cAgd/c9BxnCOxWOzhRCKxv7S09HhJSQkseYraJ4hzhASdWPbcc889/oaGhtBTTz1lXn31tnAyyS5paq5vU5h6k7c1DL84hxK7gWFTrc6p+8cQWog1RCj/MYD1Kfe7XeF1TFewXBc7V1xhl9Y4XheWa8AfYJZtObrqyw9yM21hZVXODqaN9IRf8w1mMvag46T7bMb7HHO83zDYRF9frOvSSy91Dhw4YMXjcWPnzp2eD/80uIelxV1oeHt7u7Z161Zl3759fMeOHZxznhVCRE6cOFFeUlKySlXVOiFEXTQarWaMlTqO0+rzufEFTY7jrMrt0+OYMRb4h8UAvuJz4RwJwzCOKIpy3/j4+COxWOzRAwcO9La1tWEBQxDENJCgE8uO/fv3Bzdu3Fg1MDBQ2thY1xYM+i9WVXWrYHw1Z4rBGDfS6XQ4GAx6/u4cMhAs3/2dzZpuQBnIZrPu/rAMMjMML2ANoo6veB7EG78PhUKetela7Iw5whEq10zBHJ0zBX7wBGMizpjzcDabHBbc1zsSH+kyUkbHqH+0h3Wxvm3btqUQZLdz5048f6FEedFAStz1119flUwmWxVFeQ6s/5KSkmpFUdYxxi5ijMHax36DCW+BorgbHRB6BN890t/f/yvTNO8/cODA8bY2Sq0jiKnMRdCpBi+xIOzevdu37q/Wras0Kl+wes3ql6hMvdJyzApVUQ3ORFRGk0s3t+f29gK3IOIQZLnHC8GWgi4jwOFix+P8iG8Aa1IGhgEIvK7rbiCYoig5ATb/ZNuix7LF05l05mg6nT6aSqV68qxKuk9mAc7xFVdcEfb5fHWc80tra2svYYy1MMa2QugtywpomgZL3hZCjEHYBwYG9o6Pj9/V3d2duv766xGQRxArmrkIOkEUBEzuLS0tz21d33yNLxC4POQLNTPGNsBdnjHS7jXr93mCnc1kXDc49qEh1hBvCDN+lu8ePx3l7cCa9oLAHO7+XTKZZOFw2P1b/E0g4EazC8YUWwhb4VyNM8Z6GbOPW5Z9qK9v4PHh4eGDx44d69y1a5fYs2ePiej4ggwGwYaGhqKO49Rks9mLy8rKrgoEAlfrut6Q82rAtf/EkSNH7vP7/T8/efLkwZ07d47TsBErERL0mVnIPcoVBYQbQgi3c319/UXBYPDF9Y3116hM3ewVXuGIo3bVNZ1Ju3vaPt03+diNqlY8r7rcB5dpW9ItLvfL5XMc4eVla27wNZLMuYxGh4DD6h5nzD7ImHh8bCyOoiqPKooycvz48d7t27d7eVvEovOnP/2pzOfzbQyFQs2lpaWXlJeXX+E4zgWKosRgvR8+fPjuTCbzwBVXXEF58cSKgQSdWBTa29tbw+Hwurq6mteUllZsY4w9BwFmmUyG+3w+N1IcrnPkQOP7SBg1W9hkNDlIppJM5oZj/xtCDUvbw7PCZXqVG0Wec6OrCiLJhSOYQIbaU7quHhwdHX9gdLT/wbKyms6qqurEvn173ZXCGYLQiCXKbbfdFti+fftGv99/TUVFxQuj0eiaWCzW1dvbe8+pU6e+e+2111IePFHUkKAThWZyD7mzt3ObrqovL6uo2MEUcVFACVaiSEt+ZDhw05wU1XWNI3JcAoGX+99wjcPtzpkyGcwGsM+NBUA2m3Zd75xzg3NFx6syxvoZsx4az6b+GBuN/dHJOj3Nzc39hR4AYlFw57ZHHnmkobS09IXl5eWXa5qWHhwcvH/Tpk13L8oREUSBIUEnCoIQ9/j37ElYV1yxcUeofNXLqqI1L2WMXSC8PWwOoZaCDXc69rJhlct87qyRdQUbgW5ugZacax2ijkC1YCDoPldTdGaaCBJ3XAFHxFpO9JNwnztO9udDQ0OP6Xrogd/+9rdHctHRtI2yMlEOHTp0od/v3+g4DhrYnGxsbPzzyhwKohghQSfmhVwgm9bYWBFNpcY3VdWtf13YH7qBM6VaMEeDMMMtDusbFjQEGoIMsYaQAwi83APH7+FSD4fCrojLuuNuNLqmu8VasJ9uZE23UEmuCclxxtgDsVjst5lM5pHa2trju3fvjrS1tUHciz4tjDh3UIBo27Zt6DZHEMseEnRiznQOddYnhhJX1NfX3lJaWvFCdBYTucYklm2dbjgy5XKDgEOgIcwglU65EeaywhgC1/Ld7vh9KBiCmx3BchnOlKRpmvckEolHhBB7Kysr0TCEhJsgiBUJCTpxrrju6iNHjqw2HGP92qa174gEI8gZXm85pluFTaZ/yUIsk13EGJ90obvV1nIlULEfjtSx0pJS1xqXKWaxWIyVlZaxWDzGSqOlgjGeZMx6IpUx9g4NdPzikUcO/5msb4IgCA8SdGJWIII4HA47l19++ZbSqtJbyyPlL2eM1eEakpXVZBEWWXFNfj+1C1l+hy4zF30Oaxx76dgbzyEQ8GYY2WOapjw6MDD8S03THqypqYFbnaxwglh5UJGmGSBBJ87K/UP3R19Q/YL4kSNHLqmoqri5qqL0NQ5T1qPh59j4GCsvK3ejzAFEHUFpCG5DpDlEHBY60s7w8/wKbbL9J6x0W5xuL6owNYs+KYxZ3fFk5t6smb371PFT+2mPkyAIYmZI0IkzcvDgwY319fXbSktD79f10DrDypZCgGWzEeDubzOvgQkC3SSy1CpEXPbWdp/vOK7YA4i8256T2TZ+rin64UQi8dN4PP7jkydPPklFXAhi+TIwMHCJ3++vKSsru2/5forlBwk68Qy6urquqKiteGtID11rOWYVtBdPkGljMkgtk8241jjSxmRuOKxxBLXl10THfjgscul2h4jn6qBPMMaOjk2M/Did7P7l6tWX/olOBUEUBxMTE+8pKSl5Aee8rTg+0fKABJ1AGc21FRUVr6irq3ujruuXmqaJXtmTbnJY3NKqhoUu24VCnNPZlNseFHnjbilWFb29vfKqAM/FzzjjuX1vftQwjJ8ODAx8f82aNe00/ARRfAghvs4Ye2NnZ+fLm5qayEpfIEjQVyj79++vqK2tba2urn53NBrdjs5WqMki88DhBkd7UFjhsLpTqdSkwOd6Wrv75oGgfzI1DVHryA/H7/E6CHBDipnBsifNpPWzgYGBO1tbWw/k+l8TBFGkCCFQje8G27Z/pGnaLgpkXRhI0FcY7e3tpXV1dTvKysr+PhQKXmOalg+iDWCVyxQz+T2sbvwcX2UnMwg9nod982Q64Qa/ISUNbnhY6xBxxtigYRv393T2/Ec4HD5SW1s7sMKGmiBWJEIItEKE9+05jLFMT0/ProaGhp+vyMFYYEjQVwjd3d2VgUDgLZWVlbdajrkO1rjnCldc61tGpUPc5X43HiMFDV9lP3HpipetSVFqHe72gC/outQtyzowGh+9TRPazyorK7tWyPASBJEjHo/XRCKRI0KIstzW28845zfSABUeEvQi5+GHH96wZcuWd2ia9mbGWGh8fJwj+hxWtXSv5+eFw9UuxRpWOcBNKa1zIBugIAhO1RURCoSHk8nkXUNDQ7c1Nzc/XuRDShDENPT29m6rq6tD9UaOucVxnHgymbyZIt4LDwl6kXLy5MntVVVV7w6Hw222bQvHcVS3D3jOvS6LwUCc3aptijJZoW0qeA4i12XKGRYEQgj0ne4eGxv7qK7rj1VWVnYX6VASBHEOTExMvKGkpOR22ALSWLBt+54f/ehHN+aaIxEFggS9eHCrKLW3t7/ggosv+MeQL3StaRtc2MwVcYg2/hkZL2Ld59dZKplmwXDAFWrZNCU/zUzmnedSzWS6WYYxdm9XV9fX16xZ86viGT6CIOYDIcRnbNv+RynmuTgc0dvbex3NGYWFBL0IQBDKyZMnr2tsrHuvqvqvdpjNZflVCLpMO3Mbn9jM3fe2LYepmuIGsskiLzn3mDsi0t2euymxP37cMIw7jxw58p3Nmzd3FMGwEQQx/8Aqv800TaTAurE3Mu7GMIy777777lva2toS8/+2BCBBX97w/v7e10bLS2+BRW5YWVfI3VKrPgSa4gQr7k0Fa1vmhJuGxXSf5lZEzxgZN1rdrdamaZP76bZtO6qq4vr4w9DQ0B379u3bPY83ItVkJogiRQjxdDweXx+NRt2mS+FwWMbdTPT09NxCEe+FgwR9mdLT3/maisrq9/o0/TLBREDJ1VSXoKIb9skdS7g3lLS6k/EUC0dC3tMEYw5zXDe7bKQyPj5ulpWV2Yyx+5566qn//4knnvgj7XsRBDEbhBCYbE4JISplASoYGbDSQyF33vk55/yG2bwWce6QoC8zjnQdub6loeUfNaZtF8zhgglXjOFWl0FvsLRRY30q0g0PZKoaVtFoU1pSUuJYliU45z/r7Oz8fEtLyx+W2dDMF+Q9IIjzZGBgoLWmpuZp27YVbNtB1GXKKwwHwzCM/v5+qh5XIEjQlwF79+7V1q9f/1fVq6rf4VN9Nwjm+JH7Dbd6fslVAIHHapg5XhCcjGrHTQXwO/xM7pHnqrbFLcu6fXR09Eu1tbVoT0oQxOKD+XlZtQoeHh5+cWVlJYJlFWlAoBCVbNSU68Z4r8/n28U5Ty7+EBcXJOhLnPb29i3rn7P+70v8JW+whRWS5VWFyAm24jY78cRciMnHEG6ZbgbrHSVaJfFEnGkBbSKgBdSxkfF/FkL8sLq6+sgSHwqCOB/I47KAjI6OvrO0tPRLCN+RW3nY+sO2H75HrA6aM3V3d7+8sbHxngU8tBUBCfoS5dChQ3UNaxo+FA1HXy+YUyPLqspa6Zrqc61xYTvuTSKjSWXtdUnuBmKmbbCRkRG2qmYV9scty7K/PDAw8M8NDQ0jS3QICIJYZmQyma/6/f6/F0IomHukJ1CWj5axOul0+meHDh26edu2bV4eLTEvkKAvLWBNiKyZ/CddC3zUsi1uWZYf9dGTqbS7wkUEO0q2mpbp7oNHQlGmcsVNRXPhnlvdfcg5y5oZ1+UVDoeFT/PHLGZ8o/tk7+eam5v7l9ZHJwhimYOUtQdsIa5Uc90WYUSUlJS4H0uWlc5tA9onT558dXNz80+W+WdeUpCgLyG6ek/eXFNV92lVYxvHxiZ4ZUUlsx3bq+TGtcle5Az9xYXD4G4HtukwpnDmZZmdzjv3+pLDES8GbebcefiJw/9FOeQEQRQIRQjR7ThOnXS3w0LH/IXAWwTgwmrHP8xNtm3/UtO06wp0LCsSEvQlwPHjx19QW1v1znC45CaH2f5EIuFa40jzkNHqslSrFHCHCabrnqAj+MTn9/bI3f1xTWOhQBBmupE1sl8aGhz6bmNj45+XwEclCKJIicfj1ZFIZCAWi3FY5fn9H86C6OzsfCn1S58/SNAXid27d6uRXRHtr5KXf1YPR1/uY/o6HApc6boGy9p77NP8rsscVd6kmKPCm2MLZjk2sxyv77iMbvc6qDGRMc09vV1d/z42NvY47VMRy5hlF+m9Ujlx4sTzGhoaHtA0zd0AlPE7M/Ag53z7TE8iZgcJ+iIxOjp6SzgS/idNV5sty9JlJTcZSKJyr40pLHUZWALLPVecYTJilCuKa5XDhRX0B4Rt278fGBj4wgMPPHBvW1ubsUgfbzlCwkEQc6C/v/91tbW1d6ARFDJspBEyA2ZfX99f19fX/2imJxIzQ4K+wDx8/OENlzZc/C8+X/A65JPj7RNJr7QxUjs4414kO1Nze+Beu1IIuyzN6u6KC+EKfElpKUulUyIcDD05MTHxpbKysm/mcssJgiAWBPSTGB4e/nBVVdWnLMvicu98JnJu+cHR0dFtlZWVXTM9n5geEvQFpKen59319fX/22F2GfbEsYKFcMMqh4UOINTSIoeQT/YkVz1hzy8Ug8IyjmDDRib7Wcuy/rukpGR4AT8OQRDEJEKIHzPGXjk+Ps5KS0vd2J6ZrHTMaT6fD+2d+0ZGRj5QU1Oze7kV01lKkKAvAF1dXVeUV5d/JuwPvSBrZv0+3edGr6uK6u6Fy8IwWK1C3NEsBQKPvXPcFGVlZUwwZ/JvUukUCwcj/YzZD3V0nHpvZ2dn786dO71ScARBEAtMe3u7vnXr1qez2exaVIXLLzM9Hbmy09JSR1W8v8RisR8YhvF0d3f3Ly+77LLYFI8jbY1NAwl6AYnFYlXJZPLWVatWvde27dVubWPmuC72SDjCLNtiuupzG6h4/coZs0UuTS1XVQn55Wi0goIMWAiYlil8mvrwcGb8y9XB6u8W8PAJgiBmBKWpt2zZ8o5IJPLPiqKEEPsjBT2vxPQZkTUzRkdHWXV1tSxAE2eMBdHFORdYh1igIcbYSDabHbYsa8g0zWFd1+OJRGLQtm08f9gwjAFFUQYtyxppbW2dwBvu3bs3sHPnzsyMH6JIIEEvEP39/c8rLS3990AgsD2dTvNgMOiVYkXb0rwIdlRqFg6KwHgHIrufATzfYba7l46Sr4yxXttxvnr0yNFvXnjhhX0FOnRiaUOlTIklA7J1rrvuugsikchBx3EUzzDhk9Ur4W2cDmwx4vmyTLWc92Dly99B1OG9lIW1ZLU5x3GE9G6iHEfufWRXKngsUYXuhOM4e8bHx39QWVn55JIZuAJBgl4AhoeH31VZWfkp27YrZlqhynamEHVctL6ALveV3O81XUWgHBqd/rij49RnW1tbHy3AIRMEQZwryvDw8BsqKys/wRhbm18rI7c3PuPrSXF2Fdm23TkPcyaMGCnoMm03/7kyMFjWicfv8BjFa7xQJDHBOT8wOjr6TydOnDi4bdu21IwHUwSQoM8jx44dq6mvr/9mIBB4uWEY3LWsc41TzopgLB5LsGhJxH1KOpNmsOYRWFJWVoY9pe6xsbF/rKiouHMeD5UgCOJ8cPewBwcHL6uurvwHxpQXM8YqIKYQVWTqwKKGCMM6n8lCBxBxCLR8rmwshZ/hdwiwwwIBljzmVGT34Lky6wfu/Vw6L+bLHsuyvh6LxW7PRc2vqD13EvR5omei87X1JY1fzJqZaux1w+IGMwk6bgJ5AyAiNO8GSJmm+f3u7u5PjY6ODq2UFSZBEEsTIURJOp24JhgMfIgx7bnYIBTC2yzEPJbfrnmWRWUmkdY4kOVhZUbP1IpzstFL7j2wP4703/sHBgb+fdWqVT9byVHyJOhzpL29vXTDhg1fjkajr8+aGTf/EhdaNm1I98+MSPcUmq0Eg8EU53x4fHz8k48//vh3KHqdIIhFBA1XVicSsbeEQqF3KIpWPjY2osBqhoCbpv0Myxpzn7ScYaXLQlhnQ4o1BF3W25A57DKVVwJLHM+HFwAhRpzzhGEY30qlUt8rLy9/fBHHaMlAgn6e7N69O3LZZZdtWLtu7Vc1pl0mmKNljawXuKHpruscgR2o+DYd6IaGv8GqM+ALCoc5t6dY6iNRHkVUJ0EQxIJz/Pjx0lWrVl3l96vvV1U/SrP6stm0a7Dko2m+SYtaRqxj3gMwUGYSdAg5wN/KxYBs7AIBx/ajnB85524QnGmajxmG8eV77rnne1QN85mQoJ8fysDAwDUlJZH/FpzVor0p6q7josTFLIM33FQzzbu4zwb6lOuqD7Hu/UNDw++vqan5/vkdEkEQxNwYGBhoLSsr+3ufz/cayzLWIHId24AQW4gvRBqiKvfKOVcnI9Cli/xc3e2wuqW7Xrrb5VZlrtAWVB+paXfG4/EvlZSUPDW3T1m8kKCfI7t37/a99KUv/UJJScnbhLB51jTc4gjVVdVugxQ8hqhD5JE/flYLHZeoO/oCWea3dXf2faapqanjHA+HIAhiTqAoTGNj4wtrairfwpj6IuxJj4wMBSorK93XPXXqFGtqanpGsRiIMICgQ4yl5Q5BRoAchBgBbNJaPxvy+TLIDQFveL1IxA0SHkRQsGmatz/55JPfueyyy8bn9EFXACTo58CxY8e2rl279t9UVd1hWQbHKhIXrqKqbpEYd++Hcfcxfofcce6mDZ/9ek4mk387NDT0q+bm5v5zOBSCIIjzBvnju3bt8jmO9WHbFjfqun6ZaWY5BFaKcDKZdEUZYitFGi50ud/t5Yp7eefwRsJDCSs9X9xnCgoG+VXlcqlvMHf6EonEPx85cuTbFBA8e1aCoM9LIY7BwcFd1dXV/5cxtm5KlKW7qsRFji4Vyy8AACAASURBVBxI6W6ShRAyRtbbS1dUt3QrXFYlkaiwGHtooKfngw0NDQ/O/nQRBEHMDcMwtui6/h7G2N9IPyG+ytxuua8NXINFUXKVLPnk7/KfI/e4MfdhASBT2HI54dNi217eeX6OOWNWB2O+53HOKY7oHFkJgj4ncivZf0gkEh8MhULluHjj8fhk04FkPOHWWmcKd93t2FvCBQrhxsWt6V5v80zWqz4Y8AecmBn//J8eOPCxlVSSkCCIxUcIEU6lUhvT6XRTIBAoU1W1SdO0qKIoVYqi1DLGahhj1Ywx+NsRADSTRvAzWNiTFvtMLnekvhlmhuma3yus5QuMdnZ2XtXU1FT0Vd0KwUwnayWj7N69O/Syl73sy47j3BSJREqmRm3K3MmJiQm3+AGAmwoXsQwQ6R8cYBUVFe73CuPZ4eHhXadOnfrltm3bvE0ogiCIJUp3d3dlMBgMOY5Tk+tHUefz+WpUVa3A4iAYDNaqqnq1bdslMGSSySSHMMM6n6lKJjCMzGSaGhwClpX8mN9fBk8ocR6QoJ8Z5ciRI3VNTU3/7ff7/wopG8iRhFi71jgs7kzGE2lFcS9IWYsYq1XsOeHng4ODrLK6iqlcSSO449ixY29cv349udgJgigq+vr6nrtq1aoPMsZejXpaUw2bs5FMxl2vplfeNSTGxjrKOzrGUmTwnB8k6FMQQgSPHz9+YWtr6zcZY5dCoCHcCPzIb3OK+kgK2p/mCinIfXXsBeHilHvqSMc0TfPnfX19b2tqaho7v9NEEASxdEHHNRTBGhwcvL6ysvJuzrk2m37oQAbfMcZO+v3+5qX7KZc+JOhT6Ovruzoajf4gHA5XyV69crWZ3/EnV+DAc61z/H860hMu99zfxDVN+zjn/AtL/1IgCIKYO9ls9nWc86/oul4y06tJQwjYtr1X07QXzvQ3xNkhQc9jeHj4jZWVlf/BGJu8EOFKx0WHikUyChR75oGAjwWD4clqSBB72W0ILnhFUY6Mj4//w3333feztrY22dqPIAiiqEEP8h07dvzQtu3rVFWdVmMMw3K9mqFQAFHDt3PO336GwVFGR/svqqhY9ZeVXKd9NpCge6kZfrQ8LS8v/zgaEMDqlnvisp4w3EeIWgey5y/S1ZCXCWsdrvfcayGHcu/Q0NCn6+rq9s7mJBAEQRQT2Wz2Qp/P9wT206f7XLaNtDjksjMxPDzxjurqsq+e6fm9vb3bqqqq3jE2NvbR2tragWIaq/mEBN2rOfzlYDD4t9g/h1jLtn0Qdgi1W8LV5/X2hXhLSxy/40hjS8RZNBJF+Vfh0/QfxmKxj5aWlh6bzxNFrEhWVOtHonjAXGrb9v+oqnq94zga5lAYSagAh3nTS1FDSVnGYMQLwcTQ0OBltbW1B882ColE4kPhcPht3d3dfzswMLCfAueezYoW9Pb29tBFF130NfQvtyyrDBcaLjIIuqx6lJ9bPjY25kZk4jlIYXOrIumaWxHOdmyhKOpX/nTgwIeoshFBECudkZGRaysqKn5imqYf3k2IOpDzLL5XFK95laKw7MmTJzc1NzefPNu4oez2rl2v+p4Q7MXdI73/p7Gq8cuc8+xKH+d8VrSgp9Pp7wQCgdfDiy4vNog0xBzfI7hNNiWAyx3udbc1aq4LEAQ+WlrCNEXF/s8/7dmz5/O0X04QBOEhhPiFbdsvsSxLw3wqs4Zkqq80jkKh0NDJkyc3NDc3T1uv3Sv09coDjOmbU6n4f9s2+1BJSckwjbfHihX0VCq1OxgM3pzNZt1uQvm9d2VdYqwq4WKXBWWGhoZYdTWKKDE3x7ymBkWV2HBPT8+tDQ0Nv6CADYIgiNMMDw+/uLKy8tfj4+NcFptBBhA8nTLCPdfo5eADDzywDalvM42fEJl1jPmPMOYgefjRzs7O11Jjq5Ur6IplWXtUVb2BMabn1xCW9YnzxV3WZpdV4VD2FRcm/s5xnOOxVOzvjh4++sT27dtHZ7oQCYIgVhqWZf1CVdVr0YpV1vKQcUgo/ZpMJkU4HPoh59qumcZG5rsnEokXhcPhexljmuM4AyMjI201NTV/nOnvi50VZaHn6rLvFkLcNDExwRGgkd/DN9d7d/KcYwWJQI5AIOAWi8HFCLdR7mI81dvb+/rVq1c/UOwXCUEQxPnS29t7VS7jR8HciTlU1vHQdcy32AcX/4dz9TPn8h62bX/Ztu136LqOtOCBVCr1mXA4/JVzeY1iY0UJuhDid4yxnePj427tdbh+sC8O4ZYlXCX50e3YKy8vL2ejo6NuXXbG2METJ068oqWl5VSxXRAEQRDzTTab/anP57tOCKHBcHIzhNw+6q4E2ePjsVeXl5f/5Fzed+/e2wI7drzpQdu2L8VraprWk8lkvhoMBj99Lq9TTKwIQUd05A033PDNQCDwOtM0Vbk6xEoRF5WsACfb+MGdjv1zfI/f4Stc7VgEWJb1h1OnTr1z3bp1KHJAEARBzEAikbg2FAr9xLZtP7yipxtdoX4HF6ZpbfP5fI/N9DpTydWQv9eyrIpc9LwwDOPffT7fJzjn6KGxolgRgm4Yxu26rr8hnU5zuM8h4rJQDFxACNCQe+UyYAPgZ/gHQc8Vjtmnqmob9eklCII4N4QQdzPGXo4sNWlE5XpkmAcOHAifZ145z2Qy7/X7/f/OGFO9Ji8BFPf6BmPsQ5zz2Lkd5fKmqAUdlvm111772Wg0eotlWdWwvCHoABeUrPwmoy37+/tdl7rcN8dKMi/Non14ePiF1dXV8eV9ygmCIBaeTCbzck3Tvj82NhaqqqqaLKVtWVZnrimLV27z3OFCiPtN09yOOT1nfFmKovy8p6fnzQ0NDSPn/pLLk6IW9NHR0f9VXl7+CRnN7u3ZqO6FJC1vCDuEu6+vj9XX17tnMRfBPllkhnP+5IEDBy47zxUkQRAE4eWl/5wxdh2sdBhSmId1Xf8N5/yauQxQzvX+676+vtK6ujqZjQRL/Wf79u27eTbpcMVAUQo6yg4ijaGysvK/hBAh6U6XZV1xIUlxBzLoDYyMjLhW+vDwsMw5/+MTTzzxis2bN1PrU4IgiDkwMDDw0qqqqntN0+S5+h+WZVn/qev6++bwsi6GYbxN1/UvMsZ8cL3j9RVFEdls9lc//elPd7W1tSXm+h5LnaIT9N27mbp581MXbdy48U/JZFJB4FsuAtIVcSnmeCxrCks3PFzt+DncNngeY+w34+Pjb6qqqupZ6ieSIAhiGQD3+I9M03yFrut4LGKx2NvKysq+Ptdjb29v17du3XpvOp1+EbpjglydEVjqf4zH4zcXe1W5ohJ05Jlv3rwZYv4D27bXw70OIM75RWPkz2VgHKLeEQwH13tenvnBjo6Ov2ltbUXHIIIgCGIeyLnHkW6mqKoqhoaGrp6vojCjo6MXl5aW/tEwjFIYapj70Y8jGo0Kzvm+TCbz2kgkUrTd2opK0IUQYcuyfq1p2na4XCDcsLZlsxVZOEZWK/KaAyiT++ewzsfHx+2ysrKhRCJxTTQapdQ0giCIeUYI8T+2bb8ac/TIyEjTfHpBhRD/mzH2EcuyfDDSoAXYSl29ejUs9b8MDw8/v1iDm4tN0Pcwxm6WVeBkn3Ip4BLZu1xa6kAWmeGc9/X397+yrq7ukXm+hgmCIAhvvr08FAo9iISjPXv2lLa1tRnzNTAw7BhjTwkhGmTwM8hlNmVt2/7pI4888rZiLNddNIJumubnGWNv5ZwHIdQoXIB9FFmrXQbEyTrtUtTB6TKE+uiJEyduamlp+cN8XVwEQRDEM0FK8Stf+crv6Lq+jnO+db7H5/jx4y9oaWn5vWEYcOtPCjrc8Ni3F0J8T1XVW+b7fRebohD0WCz2Zp/P90m/378aeyaygQqEGgKOYDfZgxc/w9453O+yRnuuYtz42NjY30xMTLQ3Nzf3L/aJIQiCKGb6+vp2VFRUXO/3+//B7dIyj8RisapoNArX+9tisRgvKSlxXx1zPwRe07SMYRj/4ff7PzKPb7voLHtBP378+OW1tbW3hcPhiyDcSFVA9TdZulVa5BDwqd3U5O9M0zQdx/lwIBBAygP2WQiCIIgC09fXd1FdXd2ThXibjo6OjY2NjQcMwwijZweQXd5yqczCcZyPqqr6L4V4/8VgWQv67t27I7t27cK++bUIfMAeCdzsWIHlAtzc5isQd3wvC8bI73N7KhDwr9x+++0fvPXWWzOLcRIIgiCI+UcI8f8xxv4Vee/YhkU/Dog56ozU1NTgDVN9fX0fqK+v/9r8v/vCs6wF3TTNL2qa9u5MJuMWKZB74UCWdZVd0xDtiN/L6kT4PpeXjrzFN0aj0aGFH36CIAiiUOzduzdw9dVXH+ecu2VA4aWVcVUTExOuToTDYaezs/Papqam+wp1HAvFshX0dDr9+kAg8G1UBZINVZBvCGHH3nh+BzVZKQ7ALS/F3TTNPx89evR1F110UUFcPgRBEMTikkgk3gStUFWVQxfwD3FTsukWjDxd14cOHTq0c7lrwbITdBSP2bZtW0NdXd2juq5X46Sgv3lZWdkzrhppmcMKl2VeIeZYncENzzn/y+jo6KcqKyt/sLiXG0EQBFEo9u7dq+3YseNR9E1PJBJud00ZUwUDEIZgLmiunTH2ouXcoW3ZCTrIFfi/XgjhHj8EWxaSkT3NcaIkMkgOljlOJOd8wjCMz/v9/k8V6iIiCIIglgaDg4Ovqa6uvgtygSOSwXEw8uT2rGVZGcdxvuv3+9/JOc8ujSM/N5adoPf19d26atWqbzmOg6r+zKfnhPssn8RhgnHGWTKVZOFQGE8TWSf79YAaeNu5DRVBEASxXBFCPCGEuEg2hoF+cKEwVVWY4N7euq7rYyMjIx+vqqr68nL8nMtK0Lu6utY3NDT8MpVKtcg0hMkksymfBKHr+BG+ZrIZFvAHmO3YjCnqAxpj13DO08vxhBEEQRDnTk9Pz2vr6+u/Ozw8zNFRE9uymqqxkeFRVlld4b6g5ZhMU/SBvtG+N9VX1v/y3N9lcVlWgi6E+EUmk7keQW9wmcC9nu9aPxPSQs8aWRbw+cf7+vquqa+vx14JQRAEsYIwTXO/aZpXSu2wDJtpuspGRr222YwLZpgG8+uBx0+cOPHXLS0tR5bT8CwLQUdbvMbGxtfW1NTcDsN7dHTUG/xZYDm2WwY2GomKbCbz5mAwiMh4giAIYoUxMjKyq6Ki4vvxeJxHo1HXhWtbDlN1xR2JgaF+VlNdwwQTTsbI3vv0oadvueyyy8aXyzAtC0EfGhqqr6qqejSbzdbDIpe9zN099LzgtzMh885VXb1L5errqRIcQRALBFRiXkuaEnMGPdiftCxro6IoiuzAKauMCuawRDLBIuEI40xxDMP4t1xp2mXBshD0VCr1H8Fg8F2WZbmBcHC5y+IAM5E7UaeGh4e3V1dX9870fIIgCKJ4SSQSbwyHw7chsBq13VFddHBwED3TWSDonxR0RzhuRlR3Z8+u5VJ0ZskLent7+wu2bt36U9u2y7HvAYt7YGCAVVVVTZZwnYFUf3//u+rq6m6b6YkEQRBEcfOnP/2p7NJLL223bbsVmoKUZ9moCwKP8rC9/T2sblWdOxBG1tzr9/tv4Jwnl/rILHlBF0L80jTNa+AekTnmKOEqu6ah4s80iFQqdUcoFHo7RbUTBEEQIJlMfjIUCn0ctUxk0y7ZUhtbuorKWTrjBV779YAYGxv7XxUVFf+81EdvSQt6b2/vW+rq6r4qiwGcCdO23NQDy7bcojE+TXdXWSgio6rqseHh4S3V1dXxpX4iCIIgiIXh2LFjNa2trb0Os1XUKbFMt/yr++a5pl2uN1j2UrcsKz4yMvKSVatWPbQwR3h+LFlBx4CvXbv2LlVVXzjdR0Oe+ejYKKso96Le8YFQ3i8SiWTHx8ffXlZW9r3lWvWHIAiCmH92797t27Vr11dsYd2K2CxN0SeFPE/EJwOwIfaGYdzr9/uvn/+jmT+WrKD39PT8XX19/Tems84BBB15gxhwrKxgpft9fmaZ5vd9Pt/riijKlO/evVtpaWlRDrAD7K3b3mrnPj71bycWBUyKbW1tRu7N3esTj9va2nBtTgW/hwlkn+X3Kw70pZgyFl7u1DMj46dGylPk/Dxx8uTJ7U1NTfdnjDSHZrgFyHzByVbbAJ5euOJz0fAinU5/KBQKfW6eDmHeWZKCjj7nN9xwwy99Pt/zsVc+HdLlDoZHhlllZSUe2p0nT21rbm5+fN5HrMDcdtttge3bN1amUsHqaDRYzrlerwW1iF/zV3C/qBIWLysNRfwTiYQa9AWdVCrVxxQnlk2bo0KIkUQiMYKvExMTYz6fb+LUqVPxtrY2a6WJ/xkmS+I8yIk2rh8Hjy+/vLpiYqK8rry8vCGbzVYFAr4KRVECPp8etRVWqjMlwjUeVBRF1zgTiazZ6+NGIp3mE7FsYiyo+EY4Z4O9vYPDpmmOX3311V25wypKocJcBpsjt/BR2tvbK1RVbYhEImsUxajS9Wi54ziBQCAQCQaDJalUKhKJRELQEhgzhmGcUlU1aRhGXAgxMT4+PhoKhfoGBgYGKioqxlpaWgbkgopScs8NzBG7du160rCyG2GVK1xBqpr7IjKNTbrdEYhdXl6ONOlUPH5ya0lJ81Pn9m4Lw5IU9K6urvc0NDR8AQELCFCYDls47onIpRgwhXFhWdYXdV1//8IM4flxxx13hBsbG6trWmpeUBWKXFwSqbhS6MpzfIqvVOWa+6EFcxzOsKIRzBY2UznuccZsYeEz25xxmzHuFrN3mO0oTOWCOQjpwPcmYyxrWObj8bH4E8Njw78J6IHHWlpaTuH5U6yrZc+RviPPxYdQEooaj49MlJaWhSYmUqlgMKjmf7ipF9RMF5iF/EivAZB3TnIRNPgepNNpu7S0NGQYRvaCCy54YtkPZI79+/evDoVCNX6//5Jg0L++vLxsS0lJ+TrGWIv0mglhm5yrGN/8m1QIYctuVkJV9WeMP65Ur52xhvzsbDqd/osQ1tDw8Ngh0zQPxGKxp4aGhvpe+tKXDi1ngfr1r39dX1NTUxuJ+J8bDoea/f7oxeFwqMXn01uFEBrnGBbHZExxb+q8Fs8YF7dyteM4QlG838vALTkfCiEsznnKsqwj6XS637KMJ5LJ9GPxePzp4eHhgauuump4AcePDwwMXDk+Pp6srq4WoVAog2OemJiwcfyJROJZk3gkEnE9i37/s38HEgk/j0SyYmJCs6uqqizOe/XR0aCaTqex4Bmtra09Ph/32tDI0AcrKsr/zTAM10o3sqZX28RBl06cF7eZF3NPlzcnM+HYu1XV95r5eP/5ZskJ+v79+4NXXnnl46ZpbpBBCtORMbLuCYC7HassTVGfPHHixMukcC0h+MGDBzeUlQWeFy2rfml5SeQCxnTkRehZMxP16T4vIiO3hSC3DkzLZLqmu3XooS246CQIBJS4LWIV1V3YYIGTD2eKcJjNFKYIxni/YRsPnOg+8atUNtX+6L5HD731rW+F+C9bOjs7t1VWVdwdCobKGOPBrJlBZGqSMRFm7qJn2ut8pntgpt+797llWe133nnn1bfeeqs7mS1H2tvbW0tLA9dWVNS9IhgMXhgMBld5MUJZDSKE+xHXGYJO4TnD9xAi2aL4TOA6Tia9bJ9IJOJ+D+sH2SmnRUxxTDOb1HV/gDGGqfMvXV1dv7OssQdaWi5x2xujWuS2bduW9HV6zz33tLa2NlxXVVX7ivLy0gs492P8MqaZ1U3T9E32n/CirN35SlV1uT87WSQL9znGRhbNkluJ7oWGwN+84lpY7juO4yiKhsDfICx7wzCeymazv4rH479fvXr13bj+29vbtUKNXzLZf2MoVPs1xkStdw1IZ4F768xw/3kdM88ON4WwVe6ugLht25YhBP/KwYMHP75t27bUXO+zp556qnnjxo1PWI4ZxvyZTKTc9tqYQ11x9+vMNCy3khzOmT/ow3ws4rHEG0tLS78z1/efb2YzWS0oiGyvra39qqIobhEZ7GFMB5Z5Av8JwVSupMbGxj5cUVHxnwt60GeGHzp0aJXP57NLykr+rrqy+k2pTHJ9KBAWtrCEwhUVx+1d/t5pgBhjsoObB53hJIgRkF3l5HMwieaLO14LryNfU1bIw/OwIIgn4u5jVEAyLRMrfzQhgBA9MDQ09I36+vold3HOEiVhJj4f1sLvdpiNO37SigEzbdnAyTYdOB/TTjdcdd9DVVWnq6vr+jVr1vxqlse96GDxzBiriEQiN61f3/yaQCBymW2bfog37rucc+IZ96CMAAb4PQQJ15XsLy2vO7nvmC9iAIsBmWqK14LFLs8RvkqR51zFzQExSA4O9t0Tj49954knnn7wpptuWjJlOOX4lZeXv2rt2rWvDgQCW2F0ptNJDZ8x//MAjI38rKerXZ4WboyNu5D3+93rDo9l3woUPwFTF0QYP7yWPC9yzvTGT2DFnzTN7M/6+ga/8+STTz58/fXXx+b7wstms7domnIH5mwcn+wvjscz3X+zQX4mzw0eEIw5X+dcfcd8xEft3Xtb4PLn77otrIdfYwuLo7a7axiqmivo7jypq2xsfMx1uaN5i7uI1fjh7hM91y01w3GpCTouiPZYLLYFDeflPsZ0SEF3y8Bq+u/37dt37c6dOxfdSjpy5MglwXDwhsbVjR8QzClzhMM5LkUIr0DTN9Vt6YqbFxcPmse4K++8U4IgDVxcEGR3QnBs1wp3J0YjO2khyfKFWFVKi14uEOR2hLTa8y14vAZzODbwcB10DwwMfPXEiRPfu/LKK0/O5kZbKmRFpjMdTzeWREvcxY/se4/rBxPidMwk6DMhBFxz3oSaSqW+/etf//otyyHo6+DBgzeuWbPmb8vKSm5gDItnAy5e9xrE9YT7CZMZRAg/k/eiFA4U44CFLj8/nnum7bGp1ryc4E8vDLzKqHKvUk7e0vLHV1XVHdcHypSnR0aG9kxMDN/R2nrh0ZnOTSHB+K1evfpvKysrb8CaPJtNc1cIcgaI9BgCfGbZf1t+TlnMhDHlGYsc+Xs5PvF43F0U4bVxXvLHGGPjOKeNnvzF1mQpU/dvVGEYGebz+U8kEvG70uljt9fUbD02X+MzMTHx1yUlJd9zHIvLawbHK8/hdMy0pSrHLb8ZVzab+VYgEH7zPB0/7x8cbKutrv6OaRu6rvpy16zGdE316rxriut0wPhC3HNzscWY+JSu+j89T8cxLywpQT/af/TGdbXrfpA1M7quau7FrWt5hWOEyHPQeHscEPRcJzXR29t7U87FtGg8/vjjl61fv/59fr//ZlVVEdxyeozze7ri8fTxfgsCxlhO3rqu46hi8Xj8J0NDQ99sbW29f0EOYg4cP34c2yt3Mcai0rrLpS26k6HbgOG8kCdrevL2PkHfgQMHLti2bdvEeb3lAvDoo48+v7W19WPl5eUvhf9ShYk9J+Zaqnx2NwGuU4iTpsH7L052d3ffZlnW19vb28fyIu0LzkMPPfS8DRs2fKK8vPwl2I6ART63Ny3s+MlFQP74McaODw4Ofv3QoUPf2Llz55w9HvH4+KsjkZLvO46tSIHG+3mLm9md37MBAwhIQ8e0ssyxrLuCwcgt82Ghg1wK21AynSoJBUOThtMsxNE5zA43XMgv7JvbNTB/zOKYF46Uld0jTBOuK+ZYuQtC5C4I4Z1YueOSu3Ac07YUWLg2s+6/c9+d19y6c3H2MA+eOPG89bW1Hw4Gg6/ARjV3V+2n3YtnTS5b5DMwMTHhih5W1tLN5/f7MdgnEonEbyKRyAeWcsnDiYmJr5SUlLwVdZlxfeBzYK8rHA7PysMzH2DlDmHHuD3d2XnrxqamOxYwIGlWPPbYY1evXbv2I2VlZS/BfuRsvF+zo7CChHsof89YeqNyYjrY0dfxuZ5jR+686qrrEURXMFCCev369R+LRqPXIBjStr2A3RmScGZBYccv32qXog40TcNiZHh4ePhzR48e/a/t27enZ3GwZ2QhBd2yDWab5v8EgxE02prr4E2StbK7faoPc7cbZIwtSugQCpVNg3AY+6bK+VvOd+zmm0WWk9PAsr3kkkseFsxxR3B8zNuzcAX9GZa5h1wJxhJxVhKJip7+/tc01NXtme8Bmg2D8cGPVYQr36twpUo4zqTb8Iz7R1OzxpfAGcAkmX+zy9K6EHLLsv7c39//tsbGxj/PZiwWkr1795bt2LHjkOM4dfn7dRAB3IxTXZSzZXa2uQda88IlKgVyIpn8bVkk8uLZvleh+drXvha66aabPl5dXf1OxlgYmSPwYGARd77js5BgXL3gMc/VmV+m090aUMwhxVLHuru7b2ltbX20EMfW1dX1pYaGhndgW8KyHO4aHE5u1b4E7t/pgKsaCyI5fpLTniUxwhjv6ejoePP5jt+CC7rj3BX0BefNQgddo6O3NJSX35HOZji2krC1iaBjeIqnQzBmdhw/vmXdunV/KcS1d64smcsxlRr7j2Cw7F0IbHL3Pn1+b7IMeMFh+bGQ+fsuucn393v27HnRQu5dIuo2Go3WNK5d+0VdU1+kKmoZ9q+F7eT2FoXXh32qy3cJCjpuekyOCLyRUcwyOAffG4ZhJxKJj/z2t7/9wkKO8Ux0dXXd0tDQcEcmk7sJc/t2+eI+0x7dXJFCjj1R/CsrK3M6OjouaG1tfXqurz0XcH1mMpmW5z//+f8lhLiScx7Mt9a8gDQ2We5yKYPFJo5XRtbjnOJn7pacT3PjQmxuH+vvHvhUU2PTnfPxWb72ta/pz33uc9c+5zmbvqWq+nM45+Xe6yrueYagh0LTx2csFWQgHcZNxkjI86+q8DIg/kE92t196qONjWt/eK7HvVCCjoBf0zaZcJzvBX3Bv5lPC72jo6Opubn5EdO2amTAImKXZhJIL4aLfWOpWOkzHe+C0H78eOmWlrWHbMeuR8CYK+CCe3swzmlX+1QhB9hGt2u1XwAAIABJREFUxz7qunXr7l2Qg83d1QcOHGjZsuXi3YLpF7tFIISYDISZuho+I1LYF/kMYNEhhRw3vly5S6sdq9VcAI+wbft3+/fvf+1VV101Mp830/mStbI/1RX9BumWxcQkRUs2WpiPKNvZIKPr0WK5u7f3HxpXr/7X2fxdIWhvbw/pun7lhRde+FlN0xB57V5liJXw3MSK+3g2aaGLjRf45UVyT7XS8bNkOuEGluZSNq14PPHpBx948PNzieZub/9aSFEu337ZZRd/Rgh+CefcLxcQEHSI4kzpeksF6YWRng3hJVdPBt8lk3E3nTCXqZBIp7NfOnz48L+cSxzIQgq6jfIanH/Xp/reMJ9zEIrMvOpVr7pbUdWXufqTyxqaaXpG2nTA5zfi8fglJSUli15sZqbjXRCOHTt2XUtr8y8Q8oaoY8/9myfo7o706UNxU2Ry3yuMP8Y5x6S1YPT3999YW1t7J2NONJ01WMAfwKqRjY6Oum1dITCYfBCU5W4bnIklIuj5VhuOG8i0IulOlhaS3+/P2ratHj9+fMOmTZtOLNiAn4GOjo6Nzc3NjwkhQvnRtG62wwJOuNivx4IIix643lOZNAr/PPSXx//ywrnsS86FkydPvqupqemjjLF6XIOYsGXwI8YGgo57CPETZWVlc3mrgjPV5Q5wzeI8u0FyPtX9HsFMnotUFxMTYz959NHHbr3mmmvOKzjx2LFj72ltbf0IY6wO0fXxeFyoquq62iHoMjXrrPf2EuJMLneZxQAR1zQFqcKsvr7ePWrHcVKKwu8ZHh57b3V1de9sPkoxCDoWvQNDQx+srqr6V9MyucyUUafU9JhKGuVi/QFhGsa/+f1+XDOLypIQ9IHRge/VlNf8NaqcpVPexJgfrJVPft65whWzd7DnvQ21DV9ZqFGMxWKfi0aj789kUu5J1zTfZN4lhEVaarhploMFhOPEhChzZGUAEsCkKQVffh4hRMq27ScPHz789s2bNx9YqHGfysDQwMdrqmo+Ka1PLEa8NCrhLqbyOyUVEhn4KNOtRsZGWWV5hXX06NEXbdiw4Q+FfO8z0d3d/bbVq1d/jDG2Wi7I8oMzsfDAsULklwtSgKT3KP++QuUupHcC3I9IOzJNU2Sz2R9Eo9G2c/2MufH7X4w5DcinlrEGtu3dz1hguLUddK+r4wztm5cMOFbplcmv7YGqfvg57hevZoDr5UJ9ip+GQqFXzuYDFFrQ8+t0IE1P5fxO1bPQ57WPBVKNN2zY8FAqkw64dQRc83J6cABIP46Ewv0n4yd3Ni9ySdiZjrfgwD24devWUcsx/XLPXBZkOFNRmXxBR+lDhXHseRS88TxqrN98883vjkajn0BwUTabzlW78gKjEFUt9/akW/N0runyQlo/+bmvOCeoZwwPRK4v/f6Ojo62jRs39izGpxPCfCiVyV4R9Ifc8UaglzwHcjEyU1Gi+QBiIxcTsIbCkQgsRZFMpj55369+9dmFTKl68MEH127ZsmWvz+dbK1P2pAhK17UUPpxjHO/5p/UViCkRiRBQnEfpVQD5qVFu8cPczzDxxybirLS0FD9KdHV1fXLNmjWzbqSxd+/etVdeeeXv/H5/cyw2zlALA3g55fpkJggWvfDMQAALHaMxV/KzGaakWLoijkBxfD54HzBfoVASxMy27aFEIvG5srKyf5npGBZS0LEAURgriKADpESattXkZk45NiqPTvvxLcd2556yklKRSqU+Gw6H/3Gm8SokiyroQgh/98DAGxpqaz9vOTYicF0Xh7Sy5ApYFmlwb2pcgJbJfJo/YxjGl/x+/4cLOUCSp5566oUbN268D1UW3Yk7HF5WK/S5Ivfg8iawtGmaT/3mN7/ZMZf9yvPh8OH2izdt2vqYLSxN1rdfTORE6VZOQ4U1Lzq268CBA62FKrd5JtLp9O8DgcBfjY+Pc7jS53NBme99woJOVofL/yq9FPm5z7LQiOxahXsZgpG/1VNAnCNHjly1adOmB2Z6j1yjjt9YlnU1gizhwZg+tU9mTE2fZy3jUmQWSX7xGelFkuOVX1RHGjXydzLuQRb/WSDvgHPo0KEdF1100R+nG7/Bwb626upV/4PCMrgepGHjxTzMPQ/dDXLNub6RtlYoCx3Ywv62Zdm3oD6Da5jNIJHoJSKD6DRFHeWcV8/n3v65sqiC7i6jE4n/CYfDbVnTcCstyT10uLSmVo+CJYwVeTAQZFnDONV5shMW4iPn+qHPFewZt7S0/CGZTFb5fD7UFZ60wpf6Cn2uuNWRNO1ZnzMn8MlMJvPrQ4cO3XouQTRzxTQTX3CY9h5d091bbjGRwYMYI7d6mt8LmNJULdnV2fnapqamXyzEDd7T0/Op+vr6j8TjcT8Wm/kBgnNBRpfnV4LLFynZtljWeZfBY7IOuUSWAwX5gZiFxrKsP7a3t79hpuqHiUTi//r9/vclEokgFkOyQtnZmZ2gTy1f7cb/5P3DnIfrBl8xZvnCL+cWnAM8R3pTZOEkKfaFxLKshw8ePPj6bdu2nbUZSjEJ+tD40FurSqu+4jDhlrGdaQ9dCjq8Q45wRDwV+7vySPlthTwn07Gogr53715tx44d/YKxymwm84waz6hd7qAut+qVn0Twhuva9HvlUTN29u6QNrs9nrnQ3t5e1dra+uNQKPACb5JS3P19BEK5dX5lnuI5juQSiYmbkfzCHnIikpHjOctUjI6Ofubhhx/+9PXXX+9F1RUWxRE2gnVqUfyhJOK6VxcNub8LQXOFyt2H9KJkY8mJ75ZHypEvW1COHDly+YYNG35rWVY0f09/prK380G+lQnRkTXHcW3IWvAyQl0uMgDGSxYAKiTZbFY4jvPlUCj0nrO9D2pgbN78nPs556FYLOG62nGP51z3U5hay2T6BaWMTZHiLLc+pJcj3wuQv70ga+FLd7jcBpOGjvSYLMA5RjzC1wKBwNvPNn7FJOhdXV3rGxoansoYWQW9Mmaa1iHostKmmzZr2b/XdX3H2caq0Mx0vAUDYt7U1LS9ubl5n+XY3DYtV9BlkBYE3cT+mc/r6IR8Sdcy8KQw3js89r41NTXfLtgBeigTExNfCoUCb9c0r6XpxETcdbfLqObJzmbnOJLLRdDzg8tk1ydpjeXtycE1t/2iiy56uMDngx0+fPilmzZtuieWmFCikehk/+LF4myCjtxolSsD+/bt2zQf5TWnY2Ji4vslJSW7UC1PRvnjvOH8zEdgpkwBBNI6hzjLNDIZfAfwXOlWl9eOFCeABQf2nhfCuszDeuKJJ2o2b948dqZxTCQm7gqHS16DwjEIcp26EHkm5yboQHotZMEmd2LJKzE3dWtEjs2ZthzzPQcLEfg55hX4cnp6emoaGhqQrvosRkZGdlVUVHy/GFzuuWv8pGCsCY9nmtaR1QKPMQIzke2EpMDu7u7tjY2NBZ8Lz8RMx1tQxsbGvlRWVvYO27bdZW4u2Mpb0StqTtA9l5Q/6BVxgHVuMuvQ8cPHX3zhhQWtoaucOnXqzWvWNHw1lUpxLDb6+vpYQ8Ma9zh6evrY6tV1z46znGFEl2BdmWmRk4u0uGSEr5y8pctZVdWfaZp2Y0EvGMZY2kh/N6AHkBGh5GIpCv2WM46PnFjdiTnXFUv2F+jo6nhz65rWgi084UG69NJL+0zT1GT0+nzunefnrucHo0mR13Uvo0BuQ+XvqeM5Mt5EPh/XC34mi8ToemHPH9oGo/h7T1fv2373u9/dMbW9bUdHR+3atWu6U6mUhmMPhSIzuNvPTdDlAkgGyuYEY7JFKsYvX+ClQSMXzXKxlB+nIdNi8dxg8HRXxkKAqHLUVhgYGHprbW3t984UgFxsgp7Kpn7g9wVe5W2sznD/57pk5jfGEo7zFVV1u8EtODMdb0ExDOOApmlbXKHOVX9y9x+xZ4tWoCgoMdlYHl1DYqwkWiJSmfRdEa+Wb8FAb+itW7f+jjFnTX6QD/LjkW9eU1PDTBPNY6ZEQRaZoOdPxHLiyZ/YsQjLuQ3F0aNHd23YsOGcK03NlmPHjtW0trYecphdKfcaffnNexaRyYWN5lUug5Xq5nwz/hvO+TWFOrRjx469qbW19dumabolKyGWEGG4vgsd5e9Z3l67SS/IzS/VTgiBRh3evWFZhq0oiiatUrng8ERq+tKac8UWuXx1hT/Kuf7cqa93+PDhN23atOnbsM694CbPsPB6G6CmwdTjOzdB91rMekGEYKq3QxrqEG6386LmQ8tTPFNBF7zc8dqWZWjydWRWhTeehY0hQSEXzxPjPMy5/rwznY8zCfrpzz19lPhMwCO7kEFxkKKhoaEPVFVV/ZstHD6bPfTJLKfc5M8Z6z/M2JYLOV/wpi0LKeh4r0kD9c9//nPLxRdfjMo6k9Xv3YsAuX+IZoeYoz+y8Cx20/ZuDIVron9k8Ob6qtofz3QxzIV4fOwTkUjJJyZiYxwudk312koiH9W7wNEy02I+/SwT0pSRnWqZSxbyBJwPct9cijmQP8N5ke0xNU1zFEV59N577726QHvpysmek7euXlX/DVVR3WGDmwtpa4vJ1IhuFEGCoE9GJ3MlefjQoSsuuuiiJ+f7OJHyuWnTpp/our7T5/NpWORg77eiomLe3ioX/DjpSpeWdW4Bk9Z1zceY+XQ2a3UlErEBRfH3Z7OxU44jhoVQ7HA0dEHQH1ht205TKBRoYUxZ6whHx/aAkbVci3hOzLB3BUH3opVVbAttzj8P6LJ1440v+xlX2It9ekDBZ4rHvUJBXk0Dr177M5GCjq8zC2p+5D8WPfkeLlzCjDl+xqyjti26xuMT/YrQ+9Lp2CnDECNCWHZtbc1GS2X1GudNIZ+/1bKdtUIIH8qSJhIpFol4qXWFIp32xgPRyB0dHZvOVNI4Ho+/OhKJ7M53uS9jQWcn+vuf11hTvR99D2aTtiZbWiNuBuKOrpXJVOK1lWWV3y/UeTkbi6Ynub1QlGt1j0G6puTgGLlCIbghMVH5/H6vB7jPP6xxFakBBWNgYKC2pqakPZ0xG7A/IqtDee5Hr+fx5M0+S6We5dOm42wvISnouZQCJfeM8/dQQc7tjBa2r+3r6/vZtm3bUvN5gu6///7o85//vLtM23ZLM+L9vKCVwlooZyL/RCDO4xlFRuBpyvWtz+Wxip6ennfcd999t091986VQ4cO1V1wwQXduEClxwLXppdf7Hm95lr6Ft6X/Aj2XLQ7huCJZDL2l97enq8piu+pdevWDeY+T/7CHSfH2b9/fzCbzZo7d+60Ojo6rlqzZvX7VVW70TAMxecrbD10RN2MjY+xirIKMTA6eNuqylV/J8d9//79q5/7vK0dKtd8Umxxf3spY7DUz3RLnZuFLoPiZBBbbiwxfn+Jx+MHTpw48e1wOHwkb/yexT333OMPBoP26fFb835V5TeapqkUessCeerulqffb8diif8uKyubHD9JPB6/ORKJ7Hm2oOuzcFpPzyJY6PK+OiUY02eaVBEUB7w4L9X1LKMceSKR+OaRI0feN9/z4EzMdLwFI5FIfDEYDr0bbQGmexPDMt0i+bB6FK4YRjb7rUAgUND9iae7nv7w+ob1n82aGe7Xvcj2QgGXJVZ1Xgen00FMpm1lddUNqz+aSCeeTCUTB9PJbLcQYiSWio34QiE1yJUKzrUqJahsXlXdcLnG2KW2cHSFK9wwDTew0HJdoV4ENoKR5F44fmfDI3I2D8MskYE7eRHL3QcOHNg43xdyd3d35erVq3tN0/RhkpTjNVfBkhMWbkbXKnMcz4UWibBMOs0CuT3KfBHPn9JxZUx3AeOGV7ny0J49e66e5yIzSm9v73vr6upQOKVg9zGuT+mJyRUcEY5j7+7p6X9fc3Nz/ywvk6nwnp6etvr6+vcxxq5IpTIcjU4govAiS1f3mS3kGThDkMrYxDgrKy1hNnMe1fPc7sd7j7+/pa6loOOHPXxM8YlkgkXCETe1ybSsu8yM+d6SkpLhmT7OWeAdHR27mpubP8AYe24sluAlJRFvC1DHFtiZtgrOD3l/5+aPRznnz9q2GB4bvqmyrPKHKJOLLUnp1ZFxFeeF7Okh+6HnZML1uAhRsMIyYPfu3ZFdu3b9STC27lkX7pQf5Ad3eltJnieXczXe2flEU1PTmQMxC0XBJoKZEMK6x2HsOoVNv8eCFRpuCFjnfp9fdJ46tWvt2nPvCDRbECTT3Nx4t8P4FW7EcIH3aFOphOvSQp6ulyajZISw0W/5v55++ulvnTp1qmtK4ZZnbF3kLkBfW1ub2d3dXaFp2quiFdF3hvTQZngME/G4a7XJ95DVr4xM1vV6zPUKkK41uYes63pmcHDwFbW1tb+e7ZjPhpOdHR9ramz+JGrJy+jq+ShOgj3C/JgAXdO810VOsFsoxm2PPKkTk5vEORWdSdBx/SqMx4709l6/afXqGQucnANKf3/vZ2pr61A/uoD3scMGBwfdmBEhhDU+Hvv8+Pj4f7a0tJw6h2M9Iw899FDDli1X/FbT2AbM154LOcQyGcOdGOXX6XiWx/0sUadpK8MCWqBL4RzRy+6zOgY7/rO5uhnpWAUbP3gIhkeGWVVlFcTctkz78709vV+ej/EbGhqqr6qq+oPjsFZ8HlkzAsiYJBl0Nx8IIQZ///vfr4anIP/1FlrQHSHuzDVnmXq25wVsxdxwww3/j733gK+jOtOHz5mZ23SL6lUvlmRwAQzGzgKGLHYqhBQIsUMKhCT/bPqmbOpms5vspmzKpmfTdkO+BAIxEAgspGNiHEiIHcCAZWOrWbL6Vbn9Tjvf75mZI42uJd0rzVy57D4JP8myNXfmzDlvf5/3N0SgVyIKaMdCG4WnVUzjh/OneNTx8fE31tbWrmrYvWQbeSmY/edXHmWErSkUMtU03RiZZ4Wq9MmJWEU0Gk0s+QEO0NXd9fpzO865FRWOxsEooXduQifT09MkUlGOPB9TlOztAwNDnz5w4ED3CkeV0oMHD1asXbv2zYFA4J8JIeW8bYZzUWMDoi7ADYUI2NuWICxTqdTXQ6HQBxy8hpPAGDuSSMXPDQcj81qjnELVFSPNg5fNW4KM9I+mGaxv+dEZLkHstCJLHSJQQ4qCyJKJxNcikQg8KrcgJJPJ24LB4GtLqZCSybiN952OdHUdvtjN7pLBwcFdTU1NX8pkMq0wOnlfdj5N6WIopNDBs21Ec0SjuCox0HN8LQ9vT+biD1Z4g1eX8oxPx6dIeWSWK+FEf9/xrQ4iGydhbGxsVyQS+TKltMVO5lPs+hUCzgQiM1BWfr9f7e/vj7a3t0/bf29qauraioqKn6+Gh47zyggpqUIHJiYmvlNdXf1WhN0LKXQuN0x5Ks46OYqi3eXz+XYWWmM3cUoUen9/f0dra+sxVVeoJMxbr5MFudUWgIMe8PkfoZT+rZsLYMf+7v3la+vW3lXmD7wIhDGr0RYFTniv14vkvDAwMXhtzzM9v8y3gFcCGE319fUb1q9fv1vTtPXYdHwgB3i+cfjhuRc16rUI8HYkY5SlKP7lzjvvvGyFBslJOHTo0PkbNmx4KitnBFC94r65EVG4sWRpwIOy0jmzdRsI45vhdrN+wg67Qi/knQMIuRstLUR5zke9690cKKEoyiOSJFxRypRQNmumg7Deuk7uXMnAk0JIp9PfDgQC78zlckZ7KK+n4aHbpcCnLlIjlykQPn6ZA8RUBqENUYlEJP3PB/607bKtlxk9wpOZyX0V/vLLS6nQMd4Vk+DSmTTRdP1n5aHyGwqtx3KRTqe/GQgE3o1OB87qyElqCq2hPTy+EDhDoBVa1nt6ejbkF8adjQp9dHT0nbW1td9GlNO+LgspzHyFznkXRNEzSQg5h1IKAyi/+KIkOCUKHeNHo3U191oEqks+GBr3IVBwVBOJxMcikUhJ5kyDy3nTpk0vXntu5//oum7kAaDUS3nYAUZ0RonARkZGXtTQ0LDH7bcMZbh27dofeTyeLaiANir2eVjZs7QxVQzsRCI2ZLu6up63cePGZ4q5RgHQeDz+5VA4+AFN12YNQLeiC1DosckYCwaDFEYO08y2yVkCD2btz0W6FgodIJsHyfr6+l7W3t7+q0IPXCwYY0cJ0deWUqGjDxn7JhQKqanU9Hd/+9u9H9+1a1ey2HssBj09PS9pb2+/J5fLYI67oUTgEUKJFGJCm1tfXnU+H1BsQFZTSDgQZv1Dfa9rb2o3wqA5ljvkIdKGUp5x7K+ZuHHutJmp+Df7+/s/4XZ9SX//oRe3tm64V5azZVgz7lHjbHLmvsVRuD6ID/qBUoLsbmhoAJ3xLFZLoRtpPbQhroKH/uyzz75g48aNv2V5h2uh885lkVlAarYomkXCHtbXd+wF7e3nPFzMOXADheRRSTAxMfbxqurqz9oF9GLAgTU9ZY/a1dW1eePGjYdKZe2MzYx9OxqJvlNjKoVXtRptUVDoQyeG3zI+Pn7v5s2b54Wy3EJfX9+2trY2DFgQuICD8nJDKdrZwMzeXRnXZv39/e9ds2bNt50+A2MMzBnwzjuRz8J4XQgpXm2fzxm+HFiT+7Su7ud+FwmWtzTX127EXvMgOmP1kTtV6Gi3xL16JA/LZbO3BgIBjH10DMYe9BFy9TAhemUpFTocizk+cn0vpZ4rHd98Hg4ePFh5wQUX9BCizw5n5xEYXrG/qHygpuPDBZnpoc8pKUEUTfpihI01hfUN9X54Q+uG/3jwwQcjL736pSOUkECpFbqxpyQP2L7/QKn7tKDd3d3lHR0dfYqSq4BBZK+o56x3i64fD3FYyI948aJT6+uCTtVq5dBtCv02r+i90c1oVz4OHz7c3nnO2mOiIM6zeJYqiuMhd8CSi3o6nflCMBhatQlsp0Sha5r2nzrR3iEIUJtLF8VxgeiVPAOEkHWU0ozbAoXvZcbkv8ST6S2gFM1YlH6lPOzmhtR+Q6l0VYmeaRbJZPJjfr//c+it5PSgzivEUZEsGwcNXoGNlpJpmnYvCvScPldXV9cr1q9ffw8juog2MFXWZjn/MaTCyfhPI51D9MxzXUdeJQWljee0rv2KxjRjV6IgziBm4R56PsyTw2vjFheY1t9YRunkwMDABa2treCidwRLCY4TgmhSYS9rpRgfHyXRaJQbUNrExOSl+/btO+yml75//37PhRdufJRS6UIExmRZNvYoUkSFUypQ6Cdl0ucpdbNYKYCi+UTvUM9XO5s6P7U3sTe6LbTtuECov5RnfGJynGDYC0Ap1cdHJy6TpO6uaPQKN+uAhFRq+vGysvKLMpmUUTSK9TPnmxdCwWlxOqUUbZGKKIo5Xde/cPfdd3/R3rFxNir0RxkLXEbIECNk1sg03mHecnKHhhueaHXk35uTBtmf9u3bt2PHjh3ZQm/CDay6Qkdo+6qrrvpROBx+g6LJ1COaVcSLIZlOkWBZEDnN/WVlZc9z46EXAmMswoiOXlqjrHHOqi6dsIQ+GR8fX/fss8/2uZE3LwBMDzqk6/p6bLTFh0+sDFyZ28Y6jhJCOp3Oqk/JqR95Rc/rRUH0mHSqAdc4rC01EBcoLcdQhobmxicEQgwuTbT7WURGCy9IkSfHKoozDMQyf4AdP378VW1tbfevbJXnkEyO1gWD0SHT4ijdHkUXBhRDLBYj1dVRLFnXk08+eU0mkxndtm2ba8Z1Npt9v8fjQWdJRFVVSZYzOUHwYISlkrdWc5XNkjav40Oy5K1KCKOaZARgoNtE0UtFkbBkLpOYTE4+3FHX8WNU2P/NJZf0g5GtlAqdt62NjY+R2mgtHITnent7kWIYoZS6Nswom81+wOfzXEIIC6XTKYlSIYPHJ0QySQlMLNIDMB+iKJrBK0KYJEk5QRAqdF0fEQTBl06ndweDwfvsvzGRG311tbf2rlIXxa2mh24sFmPoRTe5vi3kH3sevZrja2DG95Ad1vhYvONaSmnc6ZkvBkWKJXeRk3NdVCDrzXGphQfIS4LIcrr+fb8ovsPdO5nDc93PXX9Oxzl3ZnJpg0KTz3EuZHAUCztdozVKsiTV4IsBoeuxsbHra2trf4RCDxSCGX3vfFrcCsGrae3VyVb/qdzT03NFZ2fnX1Z4abTlhGtqaqbgnc8dqOUpL95OB28b6w6PHjlBtO9pTGeynrurTCpDpTiTGTtMdWUdQmcBn0V4spiHvtgJz0PGGtoAoBc5HAztpZQ6Dlvv2bOnYvv27TGLIjT/YwsWOxUPM6Q9N+3LB0E/mEgkvpXL5b7jdscJDH58Hi+ovOWWW/wXXHCBxufKo9gzsz0jvoy+DIq+YKERrsevhXYk7lli/a601m8hhV6oWKxYIOdrRHx0c1iOVzLW78RUYurbT3U/9d0dm3e4nWbjm8FYG6zX+Pg4sxWoCrt374aVqrlVtDoxMfrq6mpTocO4nPNWHdC+MvPlzpLfWrBVuSPkXjIganTehef93if5n2//kMIKM39L0tzw8Mjb9u3b91O31nspFL6/EoAxfUjTtAYqGpSMS36CFdPUY8nk+2vC4W+W4HYMTE2NfDNSUfMeY1SraPJx4yA6td65BWfPawG6rmt9fX3bOzs795XqmfIxOjraWVtb+3Aqk26GggO5jNMNwIkVeD7e1i4Db/SlbW1tv13p8/X09Lytvb39e8wQFCaW+z7s4yt5FAHvxGCa8/nY6OjoG+vr62+HQj8+dPxzLQ0tH0tlktTv9Rn/zudFpfsSKLCA8WSCIIUDgW7cP6W5/t6+czs7O48vfeGlAfKL66+/blwQBP9CHrpbCklVTW+DD13hwtriHJ/MZrP/PTMzc199ff2fnDzPasOszdDGCaGBxSIcdtKQlYK3RQLYA3w/ekQvPDdMf7t9cHDwF4899ti+1RD4pUA6nbg+EAjd6bZCtw78PKyWQoctkVPV+z2i+DL7DRQ47gvYmFSfnp76XGVl9SdLsfb5KHx/LsPyukYZ0QNgASqk0MEU55U82vj4+PNqa2ufcPl2ZsHEAuxAAAAgAElEQVSY/JSs6pvMMKtghNwBN4hl+ChLkzKW8bnQT3q93s2lep7FwBi7X1aVl+M5DUpdyVmlu12h258PCnJqauqmqqqqW1f6jIypv2eEvmD+gVqeh24aGnBIwL1v8hkAVuWu8viJxxsuab5kcvfu3Z4tF1ywrn39uU9yx8B4tsUMziJPDgxSVVNN78w0oNjA2MB7ug91f99JmgV0oFdffTUKyRpLqdDRtoZoFd4tr7ngbTlWjhBhWSUejx8PBAKPZzKZX8Visb1uEKeUEmZR4Uu7CSFNpUxZ5BQzdWqsHzX3LvaD8TNExxhllFLQJA/qur4/mUz+uqen55GjR48O7Nq1y14gcNrCVOjBO/EwbnroBvLOmaXQURT3xlIvSDweR2r4JnvrWuFjP99DhwyR5dyv/P7g1aW+3wWWq/To7e2tX7NmzSAvciqmD11RlcTTTx2s5mE3t2Fa62wqnox74E1xmDOtnU2DgtI0eugDAUOhAB6PR04mk18Oh8OfcPtZCmFicvJj1ZWVn8MMek6o4gRcoXPPw9hUJicPm5yc/FB1dfVXVnL9rq6uC9avX7+PEX3e9ImVeOj2sbyc3xzeujcQ+KVE6awFDs7xyy67rF/VlaiuapYQdpZDh0JHqB3tgpzxUBLEv3g8J0/+Wg5MhfTiRwgRnldKhY7AJ94t5zrn3vpcxMngHeC3nsLr1zTNJ4riflmWH47H409ms9lDLS0tT/McLsLATowZN8AY86lq5hFJ8i24fm4BbWtwDnikDoqdr53RlmfVhFjGUto6Oygs2p/NZvfEYrEnJUnq2rt37yHLgzdC5i7TCDuCXaGjap5PlHPEcbFQnSOMIZNYZlUUemxy8otVlZUfcqLQTQiol2hwtMhForDB4TJ6enra2tvbjzKie2CpFspRo8rdI0pHKaXnunwrs+jr69vR1tb2O8zY5tXtIIJAS1Sh+ysW9hyzrutscHDw4vb29qcWKFQpKcbGxjZHo9EDGA2I1qBw0Nm0Kx5iX4DAQs9ms18sKyv7+Eoe6MTwiU/V19f9M2fs41iuQjcsC2bOn+YtPeBcLisrY1PpqfdUBav+035/spz5scfjf72qyka18Eke+jJPDIhljM+zyEUg0H0eLwg6Luns7Ny/krUBYHycd976H0YilbsWGzbgRsh4bnym2YqDa2JdeG2CyR9u1pwsMAwGYjnFGMOs8XgulzsIJTU9Pf2wqqrH/vrXv8Z27dplNhusMpCbv+GGnT/0+4MgelnmWy0eUEB2TnN+TvDVIGNKZQ1jj0fM+Pho693Be09iuhq+qqr6jK7re1Kp1O+9Xu/RUCg0zovXir8j95FOJ14TCAR3G+GGs0ihj8bjH64Nh7/gRKFbcl+PxaZaa2pqTri/+vNRso28GHp6eta1t695Qid6AAKikMI0T7v2S4lK83IZLoIOnOj/l4aGxo9RSn38wCE8VkxKoBDstKicaxntKw8//LDvVHgpKPY4f9MFWa/HK5jP52wL2CkmuQLhClRRlFuCweBbCq1RPszhCNf9lhHhpPnLK1XofBoSYIXbTxqnCUxMTFxXXV19t6YpxnxsId9DX+ZycR4FHiUwKIwJlTVV/a7H43nfcteGAx5mLDb0turqxq8RsnBewA2FDupXRJfyvS2sp1nZa3ro/LNgOM0OAMI8eMFkajOr5Kt1jE21vNGsLMsTkiT9LpVKHc5ms48xxp6rq6tDd0TJgWK5yy+//J2NjY1fL+X0JTDFGcRYVridA9E/yAN46FgvtGAahZrWpDysp32ePYYfWW1ozNrLCPdNKkr6QVVlh4eHRx+rqwsdDYVWZ/3sSKenXxMIRM46hX7s2LG/6+zs/K4Thc5bJoeH+17W2OgeqdRiWKZ4co7+/v4tra0t+xhh/iJD2iylpr4R8oQwmcl14GC/6EU7bq2srH4tI2y2+hv5LTeJZfKKxp6mlG5y/WGKBGMsq2gqwqKOFbpdadgVOgQTpfR+SZJeWeRtzWJwcPCFTU1Nv8rKGenk4QjLy6Hb74nXL1itdfsfe+yxv81vvbIGXjwLkhPDWOEKfRlMcfbmdN52iWgULyyD8A4Gyo4ODAxcsdTYzEI4cuTIheeeey68fGd5oSVhdkNwRc3noQNGAankNf4Oa4rn473P3IO3K6Y5Bi3RWAPsP69XkkXRg+I7RZLIBCFiVyw2vXdsrO/XzzzT81Rzc7PXzfY4Ow4fPrBp3brNfyWEOijHXhoIuQMIu0MG8Kl+UPDYE0jpmeNaTQVvTbQz1sqKJBnpIc6Yx/vy8W9hUAWDQZMKjxAo+AlN057NZtN7jx8f/O0zzzzz1M6dOxEdca09biFwhc6YWeV+toTcR0dHb+JdQfy5CyvMk4NNsixrkiR9ShQ9nymwXRyj8P25jO7u7is6Ojr2MKIbQqgIj4uNJRIfrYtEvlyq8PRUfOq+UDD4Cl70wyvdzcVZngJZCBBqOJzwdFRVZaqqgjHs5lMRaoRnl9HUoYAoha1Rq8ZzQvDgXSz3qwXsYlxGZ4yJluJCuPD3lNIXL2cLIRT60qtf/ImGuqZPgKfAKByyoYj9Mg92hc7fAR5X1/VviaL49wvdmyynnpJlbROU02zIfRkK3Q4+LTBhVbsjpWPw3VOBdXV1vRT0kstZHzvwLglhCUKos8rGJWEq9IXCxuZYVVNJcW+SG644Q0aXgM83m27CuzBY2yzPnb8bM8qDzg+MTxV0QphGCM0SwrK5nPyLmZmZR6amph5Zv359n5sywKxDuCoJZ7gwgc3KgJC7kY5YQNTCodEUM9IBEh17amj+2gizxgBnY+RFihhvaxpWZsEtpaJOiNFSkcXkRl3Xf57JZB6LxWKPtLW19azsKZaGqdDDu0FadTYp9N7e3tetWbPmNiceuvVO1MnJyduqq6sRrSxpemnVFXr/UP+W1obWv4Be1Qhp5kULF0gGsclY7Pqampp7SrEZoYgmE4lHKkKhy422EsUUQlavuPmRBfnAFgf3VCD0rFAZS6fT/x4MBleNDtAO9OJed911H2OMbcjlclAEEg6iJmlMIhLRiMZEAmIJjRhfDd/F+MqIRhiVKP4e/pnxc03TqNfjZZquGaukqqrg8/p0opO0qqoTPp/vI8t5b0gJbNmypZsQvcVMVzjL8XMFY5+kZjB2jY9vXaRrgsZisQ9UVVV9WVVVY9iFE9gVHJQZjAQI4GQyKQuC8LtIJHKNk+vncrkveb3ef0DLEC+84vlZ00B1bpCeYqAk3Npw6p9isZmfxWKxe9atW4d85DximRWAyvL0lzye8g8ixWLwMljUqbxW4CxYP3jwOOeqqqp/TiQStzPG7quurh609+g7QSw2trOqKnqHqsoCL/oz18+BnWkpAvs8dMPg0RVU3Zac+hXoGxh4dVtz813LU+gnw0pP7QsEAvN62kuBVVfoVlFcb07JQhGc5HEtoND18bGxl9XV1f26FAsAJOXUU+b8cEZ4dfNs7nuRasvlgFeAW5Y0FPqng8Hgp5dzDTexf/9+cEIaJfdbt261zzY+pcU1MDYuvPDCF5177rn3KUrO8PQR0nUKXpBow0hXV9eiY0A5972u64JTelyu0G2978ZtWMp3+Omnn75i06ZNK/aczG6AdfsURZ7tBsA+M0aGGp6vM4PkVAPrh3cAT5Qxxsy2Q8EYMzwxMfW1xsbGFRcWAs8+++x5Gzdu3IcUC2c5nM+i6LJBtPAMGcdY7LLcyMNXgzApEDAY4BRF+enw8PDX2traDjj98MUVOuywFa7faaDQT8Tjr2oMh+9ZSKEX+xptNVRdlNKNTte6EFZdoVuDBMZUXfGabVMLj6e0ITs1OfmC6urqxwo9zEqRZeyEl5BG4/fB+GwJXEN4uKDQeciSK/Tp6el/qKys/OpK7/dshizLt3o84hsmJiZITU3NygWCBU7DyMO/VihzN6UU7HALAlwJfr//8VAohHGnS6LY4I3da8Z+sKqZ2cTExDuj0ej3Cn3OUmBM+xkhwk546bguFBPSO9bEJyeXPuXglfU8HI3pbzBWMMkK4UtZTv96YmLgc889N/zncDhMV9LaKsuZnwmCuBPRJhgPiKZh35j1AqYBdqbCLnv4YCZrxLFBkUCI9uuxscHPHzrU+/hK169ohV7sYTHksLni+R66NW1tVTz07u7uazo6Ou536qED2Wx2/P77728udbvhqit0xliAEDbCCIss1La2ANlw9vjx41vb2tqeLdWh0hnLarrm433Z/BAAs7kvByvF82GWt6ZPTk6+o7q6+gelep4zFceOHavt7Ox4mhBWO9e/b1Cru4LJyUkMymAzMzMFCW8YY19hjL3fyAs5BO+c4EVxnEYVf1aY8ssHfvHAK1bKEoYUhSRJ51944YV/TqeTHj7nfm5C2go9pNMIqPCeK7ibK9DDzzweT5YQ3UcIfWhwcPgTLS0tjy8zz05PnHjyosbGC/8sy1lj/binbuU/T6OVWD7M+h3w1gizo1R5tMjMw5McpaI3l0s9NDWV+MeGhgZQNeeL4SVRtEJfDs4ihY7aHb/fz5LJZH04HMa8kJLBsbBaAShjSLgyyodt2LGAQlf6+vrObW9vR0GM67hlzx7/m7ZvT8uKbKUAZkffmSFL3m7iwkrx0aIW3ehPXX+YMxzHjx9/V0ND3bckSTJW2zSAnHlIXLFxtj6Px6M899xz7VYOdlFkMpm/9fv9mE/vSCNCoPIowSL5+MyRwSOXrm9Zf9DJ68vlMp+TJOmDGKABhZTJ5GanfJ3J4NOsAG7kWdXxxs/4+1UURfN4fDSVSn4jFAp/cPfu3cJyjKRMJvN5v9//wWw27cV7wvqhP9xpyuVUY86wM9eKpzA4dwAiHlatBYpiUIfxNY/H86E9e/aIxbbVnq0K/fjx49e2tLT83ImHzjsbFEUB0dZ5jY2NXaXcEy6oqeWDMaapumIIynymuAUUOusipGkjpcPL/6TCOHToUMP6DRtOKKpiFkDp5h3wVhKnCt3e1mWbFb5zzZo1dxe+u/9dYEx5jBDhUqwZck8QqA716WyfvC2X/WePx3NSf3s+rNTQpOMbsA024f3anITFUFJMZVOx6Q9Ho9H/cPK2Md/7hS984a1er/fljGk0lcoYldNnOnhfNo9u8H545NSnp6dJZWUlUiTGiFcrxcAIUZ584oln3njxxRcfKvb5sX4veckLbxVF78uRukgkUo5G854u4AqFp3y4UYk/o/C3vDwMxUWampqMtc3lcsznCzw1PDz8+mKVzylQ6Ld6Re9Ny40kLBcrq3I/GZYOwGyLl4DAbLn3sRycEoUuM/mvAqObFxp+YqrTuZIDSghYtao6OztnlvNgxeLQoUPnr9+w4YDOdLAxGQrdLMIx78RpyN1OvMIVel9f36vb29vvLfYe/zfgwIEDGy6++OK/plIJP2/JMfrkXSjqsg1oYYlE4uORSOQLxawpeO8JIS8v5t8Wgr0vm7eAGX3xktEs+Mhjj/3l2m3btsGAWDG6u7vP7ejouC+TybQHAgGvbT79WQG8RzwTgDw69gmY7AAodxgw5s804vX6e4aHD908NJQ5uHXr1qJkR2/v/vWNjRf8QpKkdlmWjeID3v99psIuf+ChQwZh35l1COLseFyko9CB4ffPzlDvHRoaurGxsfHJQiOQE4np14RC5T87ucrd/aI4K4e+Kgp9ZGTk/9XV1X3fiYfO119VVcwjuamxsbGkkdlTotDHY+Ofrqmq+QT43AsVxVGjcIOESkWOMDA8fGVjff0vKSHGsBiu0GcPgsOiOHvIkCv0oaGh65qamn5xpgoJt4E88Nq1HR8CTazH4zHI9OciG44i3vMEGmpTxsbGLq2rqwPlbkFMTk6+u7KyEhP+VnxOkD9DERKUeH4/N4DhHT6PTz92rGvTOeec57hOxKra/q2qqlWiKPpcKAE4pcCazbWQzYd5tiiZmpoyPHV7NMya364PDw9fI4riE8Uy0KFroL29/Tder7eKUuq8xeIUw74mHLwo02zTM0l+eHpB09DLTg02xfLycv3EiRMviUQiT0UikYnFHuUsVeh0eHj4XfX19d90otCx/la7cvLEiRMfbm5u/m4pt8SKBdVKgcEMdXV1mzZs2PBHRnR/EQodBCXOpPoSONzbe1XnmrZ7KGPGAGzKbOF29PE6VOh2cIUeK21f/RmJXC7XJUnCek6SwZWfUw/donnlhWiHvV7vecWSO1iscQNTU1MCFAYA4QdP0G6oOYGs5owZ2blc/Lt+f/m7nFyLo7e398o1a9b8u6Zpl6Coj5ORoOCLE5FgL5qsbubR4orTng5YSBmcfijE0yGwbDbzhUCg+JkCTz/99Pbzzz//c6qqXor14xwSZhrO7PJESshMaZjMaLzQ0U6yc2asX0GgmOuz4XB40fGfY2PDu6LR+jt03eQWsTMCrjhlZpO79iiDoslEpBSpkZKH3GcSM5+MhCKfdqLQbfeOjpZ3RaPRs0uhA0eOHGk699xzjxWr0AkhgVJ56EcHBy9rb2p6mBJmWONQ6Nyb+j+Fvjp49tlnn79x48YHGdNCKOhCONDNKm1uSBFCvkUpBYVwIS1gwJzCRx7LZDIXoA2MKz5zbCi8Q+cV0AghAiKVnkkmky8Ih8MYuOEYhw8fRuHfLYSQyzRN83JFjYpnHjEYGxsj1dXRWSXO00zWsxvPyMfNnr5Y+lWa+8gbGxsb+2RdXd13in2O/fv3d27ZsgWdKH+L12Py1ntQfGjsT/wZ0ZdIpGLBS/IUi1NiolMNa5/H0un0J4LB4ILtlVYO/Wdnm0JPppKfC5YFP+ZEoXOZAXGSy+U+XFZW5qhWphBW3UMH4KVv3749l0jFhXBw3nTMRYriupo20o0lKYobmxlbWx2JHqYGHdr8kLthbfIlcmGlrMIsNjw8vLOxsfH/iuIsaJr2TUXJvdvn882uMgSm2ZbkrModQH6wqqpK7+3t3dHR0bG30KGwI5FIfCYUCv0j2PTw/uDlWsxPhrB2KrBBtSsrMmals/HYxPV1NXWuMSLG4/Eaxti/RiKRNxCiR+Z6++eqwxFi5cp+PsPcaoErZLeDcOZ1ef+6x+NLPffccy9Yt24d2tqKwv79+2vOP//8z/p8vhuwfiCcQWjaTnMLD5SPlOWfZ6fJPdPBDRnGtNzo6PgVCxH5xGKxnVVVVaut0G8s9drOpNPfjgQC73Si0O2EPslk8l/D4fCnSnnfLqipFUFgTFcYYUIxIfeenp71nZ2dz63okwoAQi8UDo+Y/KaMME2fnYxlTIpysW2N96HH4/E3lpeX317o3v43wOw9b91DiLjRHlqbK2Rz5gXbPGnkAJuXG+kZGRlBzv0RRVGMPilODeqW9woP3Zq6xbLZ1O2BQOgNbr73PXv2+Ddv3vym8vLyjxGit6XTaQolBy8dHmYoNN+g5qF3rpRKn4MvrUIH+HATStl+Sj3PW876gr1w27Ztb2lqavqoouTaMpkMhVGH/8xOjPC8NeJG0dmk1M0pkRiPK/6VUrolf/3OVoWeSCd2BwOhnfbnXanC1DSNybL8pbKyso8uZ/8tFyu9P0cAh/C1O191SCLSuUUodHlsbGxHXV3do44+dBFA4F25ffsUClrtHvqsQnHBQ+e5NEu5qNPT02+vrKz8YSme50zD1NTUtZFI6G7GmEGzag78yBkKx8TinlsxxFM8F6/r+t2SJL1muevT399f2draeoAx1g5rmyt1t0KqfBqXNdlvsre39+KOjo7+5d5nIRw8eLDyvPM2vJdS+i+UijSTSVGkEdLprGG45kcbbGx2hS7tEPkhc7c8dfO6fOwoPE1JktjU1MiHo9HWZYc99+7dG92yZfN7yspCn9B1VUilUjQcDpNs1owkwUvnnjpX6sbuNfj0z1ykUgkjKoHaEdDGzszMfLi6en6L5Rmu0BebByAwxv7ACLnC/vaWqzBtI7Oh0L/o8/k+VsrdsNz7cw0zMzOf8QW8H/V5/PMkxgJ96PLQ0NCuElaFU50xsPeAZxRjuOZ60F0qiuOep/VVi8fjHywvL/+Ga4t5BkPTtB8JgnATen/xGFCa+A95SpNhabaNxglYKpV6aygUQk55uRA0TftJNpt9PYrIINjwFXuDF9w5AYZNgKEQg4FEQWTjYxMfqaurw2TBUoD29vaua2io+QefL/RaQnSvpjEfNzjdqAlYPkqr0Dlw9hAyr6ysmqRUqF7+fZrYv3//+i1bNn9IVdVdkuQN6LqO4UYnFcDZiwvPbOizUS5rpv00paJZIWohkUi8JhQK7bbn0HGGTQNnhRG2wkVxJQ25w9Hbvn37YUZIm/1Zl6sweYRQ1w2Ck0+LoljSGR7LvT/X0Nvbe9GaNWtAM1hIoWMy1t/V1tb+t2sfnoccY90SYR2GYLOq3GcrVF2ocucvlRMMJBKJf4xEIv9equc5U/D444+3bNlywQFB8EY5gQiEgK1vfOVVsjbouj4xPT19cXV19cBK1mZsbGxXNBq9Q1EUo4oX3uz8KMLKAQ89mUqSUDBkzMf2iOIeSqUXlpo0o7u7u7W1tfmNkuR9PSEECg7/eaD47O+i9B5mvkLncOrZmtflZw/hcby7QCCQPHFi+L2PPvroT53wand1da2pr699U0VF1S5CSBVfPx65Aey59TMVnEmOt18i6JFOZ9/9l7/85TbOJHc2KnQMsNqyZUucmZP+ZrEShWkV+IIp7kPV1dVfKeVeWMn9uQIUxl25fXvOGKBrw0JMcaPx+Afqy8u/7soHLwCZyc9QXTiPK3TbqFPzXxcT210Etj5E/i8wD/3THo+npJba6Q5UkA8MDbyypbHltmQyThHWg8CF4IV3DkWCcClylE5gGVEL5v6KBWOsTlGUIx6Pp9yu7Oy0misFFHoqnSLBsiAfRJEYGhze0tLScnSl11wOkCO+9NJLLy0vL78hEolsJ4S0E0KQ71gl2VBahQ5AGfEZ7IqaIx5JvJtSHxTxYh9eNCDH2tratlVXV78uEonsIIR08JHEpa8/WA3osyyL3MlRFG231+t9HV+/s1Ghc6ZI+Hf2VV7uoeDOCbRIPB5/V0VFxdnXtjar2dAUi1mIDIcuMzs8gFdWmiFqKMDcLffe+8A7nVjUSyGrZh+SBM8OHPyygBniNXOaRmu6I3APAbkUKADkoVKp1NdDodAHHF3YITKZ+FtTKXkSxV6aJhv71OsNLLpfNU3Ot7UMBAIBPZdTdUVXJJ/k88iynPR4PL5AIIDZyMOBQOAPi92qwpQ/SkTa5vBRlgRjTKeUfga5YyefwxjbRwi5nPOycxpXp0Kbp2NsFeboV/3XaDQKg2/BNS8VEGZsaWlZW19ff7Xf779KFMW/gXLXdV3kc2Tz88OcUteWKzRuzx6VwjPyf8eft1B4f5ap0eFsHB5JgaeJa+H9+Xy+mYcf3lu/Y8eOrJtrCSN1cHCws7Ky8qV+v/9loiiCYtijaZogiqIxCY9zAvBKeV5cyfvYUXRpNxoB/B5kE/8d/Jv5vd7zwdfOYCJ0mMPHBoQs9Pv8xlefz4NzOzIxFDu/ubk5hk+emBh9dXV1zV3oBOEtv3NkQCuMtNiGs/A9YEQ/GLjnxVtFKpY05P7s0NDzNzY0POw8RGhyFEiSVx4fH3jn8eNjP1nJRMBisVyDw1Uwxvp1nbTizGqaOSTAvlHNjYlDQB+gVHqlGxb1QphJpX7plcSrfF6f0UJkUI9SgehMJ6KLnDY8HIcCLZ/Pt+wCLbeAQq+WlrpnKfXVu3RNjRAmoIOfEF0jRODhiP0HDhy4fKENPDAwcE5zc/OThBBXkuRLIHfs2LGrzjnnHBzOFWN6evofy8vLP4MqcQhUsyfZXry3ciASgQI1vvcJIY97PJ5LVn5F54BySiQSAVmWn19eXr5dkqQXZTKZ9dY87YwsyyGuWOzz5vn3fG1sOUSbkDcJejh962Jwg5gFitBM4yiz/eMeDyYeDm+rqWn5s/OVWhiYKnnixIkySukVtbW1WL8Xp9PpDWVlZYaOVFU1aG9/4/3+tmEzxs+4IcQVO1fQfM8spLDdVugTsQlSU22UGJFUOkFCZWEwLr6QFyqfIoVeUmKZ/v7+N9U11N/i83gd6shZha4MDg6+paWl5dZS7TnA4c2uHKD73Lx589cZY+/gbFY4/CYPs9nra7Z+YFqVesjn84HhqySYnp7+r1AkfLNABaN1jQshWxe6I9hDs5aVjqERFy+3hcotmK1inf2KkjN4051AR9BY1w3KXO5dWN6XqmnqLx955NFd+Z4Q3v2WLZs/ojH930RqTlYrFRhjx++6665znEZ3EonE+aFQCAaIyCdWFfIyi4GZVjBHxPIZ3JIk6X19fZe3t7f/qZhrrBYYY9GpqalL/H7/1ZIkXeLxeNbquh4WBIHizKDGgJOu8DNsFqKZNVRQNHYucbfIeYoBV4yZDIynIMtkJj9UVlbafGY+sH4TExOXhsPhqwVBuMzj8XTquh7E+lkjTSm6O7i8wLkCd0Btbe3s+iElhXUES91iBg9X6IDTCIdqFmsSRVWIRwK9vQ5PnSlE/cCv7/v1tzDR7mxU6DMzM9+ORCJvx3kvZn8tBlWVjb+SJC8bGRl5RUNDwwNOrlcIJRWmhTA2Nvb8aDT6B13XDXpKUyjIxO8P2CxTY1ALBvqCWzlX6JorweDg4Dubmpq+rRNGYdEH/CYrGLx1n8cZnbOdixoHzZoipmKARllZ2eBK7tcpent7169Zs+YpTVMMBjEnYEZ0RSMCMVt3DOVutOuImq6zH4mi+P8Wuj5jcldO0db7PM7TGkthenr6J5WVlTchV4x/F41GdV7MA8Ni69atSPssit27d1MILRSRdXR0/DadTp/LvWl73/xKAeENbxbXxDpij3i9XnhxP6KUvmWl1y0xhP379/t7enqEK6+8cpOu65fX19e/iBCCHu9y7ijwECyey85jzw0huzFTKmA9+eAWANzlhAiqruvf3xnBZ+wAACAASURBVLt37/uKHRHqMoRbbrnFe/PNN4tDQ0MXIZXT2NiI9dvKGCuHg2OdI0MuYo/wc2XNgDduB10WUOwLKW23UhbYiOjAwD0ggqkzFayGmk7074lUfDfu42xU6BlF2ScQdrnXMGKcQOcpZHbixPBFLS0tjsYkF8IpVegQsjt37hyzNvGsBQ8rlYfsrNwcU5TU+T5fuOhxiMvBwMDApiYz/GusB+a0cw9Dmo0ecyy/Qo7nXQGrSAJscVe3trb+ejn36RbGxsZeGw4Hb/f7/a68f7timzNgPEwl6tc81PPB/PseGBi4pKmp4dFsNisEAqZ3WkJks9nsfkmSPIqiiMj546vH44GnjefXrHAnLBG8XHveGn/v1TRtijHmVRRlm8mHbnqagMmH7hwIQWPf8wp6v9+PyWuthSZdnUbAWtFkMhlNJpOXVFRUXOPz+UBCssY6V2Fd1z1QUCB6wfmuqFiYNtVN2L1V3CGibtlsVvf7PT+nVJpHGnKKYazfsWPHasrLyy8Jh8NYv63W+sHqDmma5oExNEc7G1lScbuRsuCHAR0Ykighfmm8O1EiD/ikoDGJMJ1OXB8IlN25UA6dGab+ClA4h17SkDtjbFjVtfqT5f/yoCg5PjUST1RDKXU0UbEQVrTWbkJV1btEUbyeh9+4IueFcbAMPR4Pm5mZeFdFRWmI7S3O7r6ZRLwGAtogirAUuRsLZO9X5vSvqVTqC6FQ6ONurmWxSKVSn/P7vf+QTqe9boyHhBKHIuKFPYaX6fexTCb7kVBZ6KSeasa0/yZEuElVZUmSnEVACgEznyORiKFE4AXz0Gux4V57IROUuT2n6QZwH5gWVlVVZS/awv5HVeyrotEoRrieiRB2794tXXXVVaBMvaqhoeFaURQ3EELqNU2rRJGYPfdeKphcBmYUyH4Os9nsPhT+ncYGE92/f79UX18fYYxd3dzc/ApCCNavyb5+dq59p+H1haBYihxA2B2McUZEyeedZd1bSqE7Hc6CFKjxXAz/n1cUVzKFjlkjazraj3skj+Bc/vOCUF+SUuqsZacIOL9fZ6DxePyV4XD4TlVVPVAK/ADOhW7NkJMkSXdQStEqURKkcrkHREpe5rVC7IlkgoRDYccLZFcAXIBZ3tgzuVzuheFwGKQ2q4pMJvNHSRK2udMny0P2Zv+yIIrGwROIyLLZ7P8LBALzGPESiUQ0FAo9PTY2VheNRksihOyY44T3zIZ97V0Ui+XB7SFLIw0TCBi/b+WKZ++bD21xAnuFOAwP3BPC7oqi3OH1Gn3i8zAxMXFJdXU1etXRN75YyMjwcUB8Yvvlk6rmZVmWysrKNFmWdUmStGw2y2DUyrIMitM0pXTZrGqLAS1era2tl3Z0dNzIGHsxpbSVMSaWQhFxcIMMa8zftWWAjp04ceJ75eXlzO/38+gMME8m5qWkZteP/1yW5TK8K1VV9Ww2q2ENYUAkk0khFAqlKKVfXHRBlg/h8OHDl61bt+4mWZZf6vV6GxH14OtXinXUmFnMCBgUxT7TAKdE7aLUqGtiq6LQrRoMW5V7yRT6wMDAlc3NzXs0ptPiiqIXj9rKstkyScz12rj8V748nGqFzr3jQVVVK6DQuScFQJFzWkVFUQ56vd4Ll/d4xSOZSn3O6/N+iFLqgXdu8Loz5kqVO1fkUAywqC3Bwvr7+69Ys2ZNSShtF0Micaw2FOo8QYguIZ/vVCGBCcpqLzQsd4/PaxUTUpZIJK+LRCL2ue90fHz85TU1Vfdms7LgRnSgGMAz46FxHk3gAqKQMOQRo6GhIdLY2Dj7e4ZQc9hSNSukNM2IcPA8M8+lezweUBKvzQ/TMZb9e0J8n2ZMKy+Ciatg65uqqkaudoF6CvQhOSoKWgyxWKzZ6/VeGwqFvmq5cc6KOZYAf4e85Y63kAaDwYJrUwQUTdNEURRn7x9GFgrdYE9RSp1VnS6CWCzWYq0fDC7QlJbEMMICWcODjLY1eOhGBE6iXXfe+YsLUF+STideEwiU7V7ltrWSKPRbbrnFf+WVV+5qb2//kawq1GkOnYfcFUXb4/f7USfhmPtgKZxyhQ65qGnadwVBeLOmKR5R9BgeLCcasSl1fWpqqqqqqmqmiEO2bHR3d1/R1r7mDwIVBBSBQLi5odC5Mse1+LQu6/ssY+xRv98PT2tVwBgDYQiGA3wqm80aFcmOgVCYjnJCi7ZVV4yiQp2p+sjU+BXN1c2P2T+DMfY/hJAXKjnZ74HlejrswNMXSDW9o6Ii+n37LcbjU9eGw+U/JoSFVxzSLA4QPpFShqVnZmaeF4lEfqooylqeH+a88sWmRQqBX4enX3jUzI0ccwGUVGYBw8PDf1NVVXWHJEntkFkwXvAVjgPkqDmzfeWAh84HVKGNF2YKQu+UaU94vcGLcWVOLMOYNkum43j88SIMnfDQKWM/EUXvm0rF0xBPp+9DtNbv94srrACwQefFnz+hVCzZPXOccnGKSuPGxsYLGxoaHtc0hY6MjJGmpiZjQ3CvweolZaOjoy9oaWlx1E+8GA4dOtSwYcOGp7JyLgrPC6F3N/rQ+cbmPei8TcwSJsmRkZEbgsHgnyORCKaBlRSWQp+Kx+MB5JWtsaKOPjObzhB/IEBm4jOkvLx8dhyoz+PNpFKZjlAohEl2Bnp6etra29sfVxSl1myBcbVxcvnVimcANC33sCT5wUA2i+np0ZeUl9f+KpGYoeEwispLBqwp2itRMFoyjIyMvLKuru7WVCoVhiHPCyuNyurZIT0rA2+FhYLjqRO3+AOKAJuamrqoqqqqpJXNiUTi+lAo9ANd1yu5IzLbeuswioS2NT45zowgMTOKWub9jUT9L8UanAKF/mNR9N5cCoX+IGORFxHyJ4mQDWbq0JmKNKlzJZbNpj8dCARLzg7q7G5dBGPshKYpjXMtLRmjmAWbiYcCc7ncl/1+/4dd/NhZYALczp07H8vKueehPQNwo23N7gXge3sbm8WqdEIUxeZSPFM+GGM/IoSgDsFIhNkLhlYMjJDXQJBoslJlcmnDaKGitt9Dy+aNqpyenn5HeXn5f+ZyOaopuiGsRU/JIq1nC/SJiYmWaDQ6xB8olUpdLEnCfrhDbsyLXwKYO/C2SCRSsjkKgMWbfSibzbYZe4fSohnl5iKYC+8jbkjb6ZxNemEM2Cn5FmGxWOwtNTU1OHclA2MMM3CfUhRlDeQLzpVbBYd2pjgTRh+64vN5br/7znvfgpD72aTQu7u7z+3o6OiCRHND/qMPHVP+JiYmV6XA9bRQ6Gb72vUfzGQSnwwEwmUgo4DnwRU5D5URQg4cOHDgslJR5yUV5StBSXp/Vs5RrtTdWCB76BACxh59oJQyXde/I4pmT2epkEql3lVWVvateDxOIdyQO3fag24cb5URQaRmW4skmSExSpMqUb7po4F/tD+Pqqq/EwThBVBEyXiKhMLB/wu5FwbLZFIfKbN1CzA2WE1IE+ogfIQIBlFD4cusDLqu3yaK4htX9tvFgzF2HyHkFVC2qHco3ote3jx1nD+j1sPjs5yF4u9xBYA+3E0pvWEFv7ssMMbuJYS8ivPW80K2xYo+iwWvcud5dFnJEp/Hr6pE/g8PNUeBJhJD14dCDXeuYsi9ZB764aNHd63t7EABtiH6nXroyKF7PD42NjZ2Tl1dXXex675SuKGvXAFjDLHfbk1TKrApEXpbYHymfOzYsYvPOeecZ1350DwMDQ1tbWhoeJQR4uEb2I0FsitwwO61W4ILB/9LlFLkt12HNa/4e7IsV5oVlyCDmDBapZwqdXjaomTS5CIUVxYMoJxQHj4xsr25uRnUmobEHRkZuaCurvZJ1Avh+QUiGusglJYo7oxHLpdB4eEhr9e7lVKawQNZ0aSJVCpR4XR4TSHouj49PT29aaWT6ooBqt8vvfTSPYSQK7AnOMlOccpo6fGr8/rQjap/TEGjKFKySGZKjkRfX9+m9vb2vlJ9EtKWF1100YOKorwI3jmv1XHDS+dMcTjfZlGhRjyil43Hx99fW15rjIC2K3T8GbqwlDl0nbEfe0sUcp9MTH63MlT5d+lshqIWyLn81xERmuzqOlJfKkfUDuf36yJyucynvF7fPxPCjB5VKBscQCghq9WIpdPpj4ZCoS+5+LHzwBh7KKfIO5BDdyPkwhW4vQ2Pg+e3RkdHSV1dHRjLoNQ/jhDk1q1bwY7nCMlkbz0h0RuDweA/JpPJChTIoOIbxhLy5zU1Jj+zI1jFK0ahDKVE0WQMtRkhRFhjZ/abScT+NRKq+icU4yFigelick4hXr9TJqazAEv62MZf6vH46OXl5fWzVLCM6ZOEsMoSOuccvH0OXnq+9nQFjLEGQghYEwWuCIqfNb+0Qufnj4fxIU9QqT05OW0Q25Q67I4BVIyxO/bu3XtzqVjp0ul0cyAQOIZBOrwFkhcTO6V2hofO5RS6fzRdIZLgYRqRd0nUd9dZptDhbDylE3a+4ZwEylxQkEZH5G8olYx6g1LjdFLodHBwsKqpqfGgLOcauScJgcVD1tZh/yMhBIQQyVIszuDg4K7Gpqbv6kyvRHWn0wWyT9PC/fMpXfg5r+rlrWy5XI75fL4nstnsB5eaUlYIsNg3bGi+uqys5s2EiK8CIxonoEBI0+xzRsix0JWKACNEkVXi8UmmN0QZYbp2hyga4xUN7N69O7Rz57WPpbPyhjJ/UDTa90SvOYynJE1RJUZJg9z5MIY7MEmS/pNS8T38b1VV3cOYdqUkOR0esTQQyampqYHZBsa/7/EogVuIx+M1mUxmZ21t7beTySSF0YmzgbMyJwOWQuHxq3OFqWBqNCeeHT16VO7s7PRCuZcSVrqQ5XK5f/D5fD+glMJQX+yml43BwcHqcDj8hkgk8lUwL+Js87PuBjWxvco9kwVHAkXIXevpOby5s3PD03MKvf5ODDbEn0vloRv1EEyFyCmJh36sv39Lc0P9o16j/cas5nfatqaqsqaq6hcCgeAn3Xzvi8ENke4qGGN48E+rqmz1xkqGd84tTdAcp1KphlISsjDGnpRV5UJUYjtdIHtfvT2Xnn/Y+L+zepHRv3rv9PT0/1RUVNz98MMPyzt27ACP/YJ9swjBdnR0+KJRb315eetLysuDbyBEvEzXNVEQpHmTmWDBA+a0MMUYh+gIjJBEPE7C5aChREWsMD0zE/tYRUX0e/y6IyPdF9TVrXlSY7qAUDsOfC4jE5///9rWCsFGHTlNKTWnnBhpG+0jhAj/7mqfwCIAF3pFRQVqPW4fGxv7RENDg2vh41wu91mv14tcrIC9bz8XvLp6aSykG+eUNJSA4W1ZFL04g5TS0aeeeuqJzZs3X4kJwAU+wDHGxsYwYAVn99aenp5/6uzsPO74ohZSqdSnysrKPqmqKsYVz3IYYB2LM4iWBi+Kw7tAXVFOzhBKhGM+r28TN+7MkPuqKvSfeF1uW4MTVBGNvrmjtfW7OTlnRBHd8dCJHIsd/7uHHvrz7U4HRBUDp/rKdSB85Pd7n6CU1piW+tzGtBSiDKEyMDDw9VLlJEZHR2+qra3FIHrjsPPwnykcMEjDT0DQZVbgu74EszLb+ianKApqBp5D22k2mx1Np9NTkiT5RVGsDQQC1ZTSNq/Xu44Q0gJdDYIHnjt0miMvDpi5RozCOI/oGUul0ptCodAo/91EIvGDUCj0Rl3X/VxI57fxrRS8a4CP3jWVnbl0+Kz8HKodTlt6gHwjDeBrbp+yt1LklKzRQons5cxU/BU9PT2/wb7H9LdgqOwJSgSJDzlB5AP/ucmRzslYrOfCwqYIIY9ks1mEW/fcf//9x1HpXOTzCT09PajYf57PJ7zc4ymDQm1zZJQw3SqsXPggyrZcOdqQCNGzqXT6Z0cPH/3KxRdvfkKWFWPUO5Qh0lBo58T3xYf8C4OvoSDMrt++RCJx19TU1J6enp7jBULxkNFcFgjd3d3NtbWB5/l85Vi/vyWEtDtZPyOoZhyWhZ8DXSuYhQ7AQy/zB8GK9xVJkv6VUhrHz4eGBq5vaGjereuqsZaW0WSdA2cC0hyuwAyyKnxFGxgj5FZLobsW6QCyqvorryi+FM8JY8homy6gIvn5R8+/wSZJTA4TQ84Z/xNQb3BubXktUiIlx2mn0K2BLe/WdfU/TPKTMmPRIBwBi9nsr5RSDH4oGRhjT+i6fpFBLiOKhpWNPmtzcIxJIwlyKFfC1kvAGquITYIhIvx0YDIIgtX4z3iHdsFrnE9j9GzpXy8UDpQqPH7k1tLZ9OcfuP+Bf+ZC/uDBg5UXXLB+HyGejbyC2W0+dDt4a6ClgEq+BnzwDs/RAryYizPAOQEDF7QR+vMpOtHvFqlopDIwb5sQ8oyiKB1Ye4R2Ea6GMME6436csgDyfQVw75k/nyAI2IM4lGlClAFNYz2iKI0m08mpUFlZLp2VA5TRsC8glTPCykVCWwkRMailnBCmQkxj2yCC5AxLV7kbFkgqYwwVMYffCHJfT/+rOzs7H2SMHdJ1dT2cBuxJPsYWBhI8emuOhLPbs51NrujQxoSIrvmfniVEO06I0E0IHUkm49NEyOUkIRjw+8vKdV0LM8FYv7a59cO6o0iNehwT+S1C4MKB/QeAZwLrg4K4vsG+He0t7X/g/2Z6Ovaa8vKqn53JCh0cGY1rmvZKRGrlRDrF9KHzwkMUN/MuH3yd7TKg0nN9fX1Xtre3z/JxlBKll/grQCKRqA2FQo8TorfZi35w0CCoysrKWG9v7/aOjo69K7h8UZicnHx3ZWXlN9EzDWvNLrA5fagbVaTFwu51zh42W187kE/fuQpMWLMHHrSQAV9ZfywWu7ympuYEv8fJycGXV1Y2/ULXdQFeD4wiPvbRqHJ3GOLgNKncgMmncuXFiMBCBk4ho8f++wuh1IYTF6iYLRAJlUO6NiJkjHvRNO3bgiC8k48f5ixhWFc3wq0AF1T5FefcgARXtVmZHlTT6aRYVmYwk2kwOQgxaE81xjQUuxnem93Ywbvzep2yFRZW6LxjxRLQk3feeWcDwp8ziZnPREKRj2WzWRGcF4hucA8TxpArERZL0C+2ftj+Zp69QtU0RQRTpm3qHwx4hTFNVFUV9LKz52UuwlXa4UYocsU6wEvHFEq/N3DSkJGzQaGfGDnx2sa6xtuxaU1GPMGKOC5tcNrnMEBWYL0QUUO0ErIhm84hOvneUo3+zsdpqdBNQZJ+nShKt2kam+WZ5sJ/fHwcc633UUoRsnM17MLx6KOPVl122WW/BVMWpmEhFIcDhR55WKp8upjTKtJCsG8YPlfaLhj5FCK7wuJFRfj3bnhpSwEKJzYZIzVVKJyiH6WUzutAUNXcblH0vgbRFt6SxAvzsHbFtSYVh3wDBweq0PULKexCBoc9MsKNA7vxVchgKASE8OYqbimLxSb/vqam5lv4vdHR0W04B6Ojo7S+vt64FIwlXmRpn8TlFNxDN9NMJi0y9hfmi+cbtnzADL7i3EAh2Kuu57MlOq2KXFqh5xRTwEKZ53I5VfKId9579703Yj2e//znb6mvr/1TPJ6kuE9Dk1o8EXg2V6iR+VARa9Z9/vp5vabC4Dz+Rn1JLmetrWdWzvD1s82CsOAspF0I2H883C0QgSm6eptX9Brrx7FaCh1AlT3TtNu83gC43F2T/bKm/Xcum3kL5AWMF2OyG/Z3AYVuTx3ieyh0rhu8kpedGBm6obmheXehdXYLp61Ct0LvdxNCXs49DwgSKDj8Fw6HESxqopQOu7UY+RgbG3tZdXX1XYIgBKzCIM7La9wDDl+pFTpyMxAseZSxs8qLV81zwQGU2mu0Awo9nUkTye/p9VHfBXbebwyQqKqq6s5m00ZoFV4j93pKEXbPV+hAIYVeSOEulYPnyI+euKnQsb6IfkDITM9Mk8ryyD5CpJegIMk6I4OMadGRkRHS0NBAslnZ2C9cgTjdn/xZuOGSr5AAfAafD89D1zw6xDkY7LUT9r1ayGByCn4faSP/G9BHJkZecCJ+4smtnVtnUCHe1NTUncvlypE/h1HE6WFx33gmN+bd87XjBX9mO645uQ/7E5FHfo7thE9cieefZ/s7KbS/3QBkkKzmSFVFtd7T03PlgQMHHrcXeI2NDe+MRuvvKHXInSt0VdNuC7io0Pfs2VNx2ZXbDnqpFzVIsy24mP9ejILkjJuGcjeJtYzvJcGj9PT0nN/Z2Yn6p1VBMfd7yjA2NrY5Go3+BoPhFxjUwGRZ/rzP5/tEKW9QluV3SZL0rUQiQflh40JtNcAFEhcKXAAa4R2rYp2H2ou5L7c7rnDQvZIP893fEgqF5lFcDg0Nvb2+vvY78M4DgaCxXIhwIOy+wPtcEezGHjdm7EoCn5OveO0opLALKfzZAhin9QqLvBhjXCQVCAYGoQ9Y1VR5YmxkW2Nj2wE8hywn3iuK/q/PpYbMsKxb6Za8CYGzRYh83fjes3vpiMBw4wp5a3iVfH14EeNC76oU4DUoXtS+ZLO3+f3+t9uNzmw2+z7G2FfBDIZ7tXvKboCP6rVHb/hZNoS+NWWP71m+X/F3nC2Pjznm3iB/t8VEoJyCGyHwPAVRvPMnP/rJTW9+85uz9usODw/vrK8vnULnIXBA1WSi6bqrCn1gYOBlDU2N/6NpGsV+AaHMcsZnm1TCJk05oyYBj3Fmif6IRCSMCUaH0qrgtFboAGPsY5qmfUoQBB8WDGE8HnIWRTE1OTm5zp6zLQUYY7cQQt6k6+aYSbxAfDXDX86LZgqBh9ABsxhvLkxpV0hcaPAiQqP1wmrXKSE0jWi/FIl4g11Qog1ky5aLfqVp+g7keEG1ieeANxIOh+eNxnUCe5uTPawJ8GK9hZDvVa8UUHgQynYlag9JO/WQMb0OijyZSpJQMGRUzU7lpv6jyl9lzDQwi+PU3xAiXGGvdkexlNPBJnZwA5IbYvZ0CSeBAmBk2tM8dsOCpzdK7ZXbwb0nWZaPp9PpV1VWVuYPmgGZyH7G2GZ46dXV1cYeBXiRnBvgZ5jvV75nOCDXOI/9YnuG72+u4FcDfMQypXTkueeeu2rdunVP5X/uqit0RbktEAi5EnJHy+9V11zzw3BZ2Y3IGXLDGVFHI/xuzfVYDEaYXVEMXWDsdYFYQ70k8Ph/oqam5vOr8Z44TnuFbs363adp2mVmzs609q2DimlG762srPyvUlpBptBU/qppZD2sZntPa6kVer7HgDXgVjxvt+EKnKcAVlNgEsL6hodHXtbY2Nhl37hmuL2yjzHdoHoF1SYOCBdW+X34K4WNVrdH07TjmqbNWEaPYfVocy66fa8v9r0d+T3/+X8GUBdQLkkSWgbr8o0EN4qqEHI3ePJFycjrQfAHA77nCPGgD9iw/Pv7+7e0trb+mRBdxP40C+IE16u07aFfe4QIhoM94sK/h6DjEQzL+Jj9M/c2nRo8RQIRpI9bDJMn5V0TicTGUCj0tKIoRi83wPen08jLYhEJ/Jx3SGCdIFPsa8i7erjxziMe9sJXt85QEVCSyeQXwuEwOEJOAlfomqYYxDZut62d5KG7qNCttMvoTCIuwhC1R0OKIRazy2fje5tCL3Xh9kI4ExQ6Ks6vqKiouJdSWo06CB5GMz0QAfPRkUs3zeoSAAo9k5msDgQwBlGv5AfPvA82b7oRF+qcFW51levyAQUBBcAPIg8DcgEMgWZXTNzjSafTrKysLD45OXJ5dXXDSdz66XT6G4FA4B2E6FYIozTFO5wLv6+v79WxWAw92pwyFx/oWtHMYgAP+SWXXPLVQCCA4TqUtzxh3dwQuFDoUOQQ/nxgECEkPnRi+A3Nzc2YLW94GVdf/dJPh0Kh9xFCQjz8bQobk8gHsIfF55+hMxdYHTwL9gEiGLlserYYkDMxer3+wxMTE38TjUYTiz2poihflSTpPaoqGxodip3vde5d2zsHoIRxVpxX6Z9aGMxrVoGjQXedM2uD+LNaa9B14MCBrYvRUY+Njb02Go3ermk5CgdnftTQWdGjnanOMLSYSpRc7qeBQAiFeY7P98jIyPvq6uo+ozE9ZD8nOGvFtK3Za4KMM49Au66jG2Dg4Scf3rRj847p1XzDZ4RCt4p/wCb1T6oqe7BwKNQw5m8zkPpo3/B4PKCmLCnS6eTrfD7frei/4flrSfLOVqJjI3OLGi86P/y4bKzChO+FQqK8qAOGixU+BvWosVdsU7DisVjsJQ899ND+BYhF4Lk+o2jyxrkq0dIodAvTvb29F3V0dPQve41dQF9f3/VtbW13qqpqTLLDgeZfnRp0qFHgVbOzM+TRCkbI90Q6N6Gvv7+/srW19a+5XKbV5/MJfNb99HTcIJrh7xkC2k4PeqYDXONG8VqgzOi2KA+HZiNVVrRCTSRS28rLy/+y1LMyxlDkgXB8ZzabNlpV8e4gZxB658IeBpvBuWClWVaBS7+kwP7C+mG2QiqdIqGy8KyHbdHvKiMjI1c0NDQ8vtiNzCl0xdj/p6FCt5PzzEM6l77H7w1cC64HLrsht4udtmk39uAc+QM+pMX0ydTkt6pD1TCwVxVnhEIHzAOn/VyWlRd5vV5DO5iesuEA6rlcbp3f7y85Gw9j6vWM6LdRQjG60praZBJ74KBzy9YeanQbbhe2GQuIqRU2ljP+M16RywWa9VVOJBK7IpHIL/KfDbnzmpqa57W1tT2SyaWFgMUyVSrBZ0VLfkspfYnb61wsGGNRRVFQyVqBPcCVgBvEJBC4XJEj9MiFTTaXHcmmc+urqqoQoTIQj8fXB4OBRwVBqlCUHOVtYxDYyWTaqF3A/eFdYyBQNBpdrZB3yYBpYGYkhBi1BiOjI6S+rp5MTU6SqqoaRVHS7/N6g98pdAOItGzatKmhsrL8KOrjLLrWWcMcn8Fz6jwiYJ53p330pxbw0LE/0EWB1A4MFrTwJWYMh0lJp9N/HwwGwZq5KM4Ahb4grKLrfYyQMnSS8JoTY1qdx2vlwgs7IvZol2WAyyNDfMENmgAAIABJREFUx17Q1LQec0dWFWeMQgdisdjGqqqqe5PJ+DnIOWHzwUNG7kNRlB96vd63rsbqDQwMnNPc3PinXC4XVBTFFwpFZnMpsE55uB0oeVuJC9qd5/kWMkKgMO3879D9iUTiNZWVlfcsttYzyZnbIsHIa1Rd8UoCD7kVPhgrBAZfvN/v9xujHE8FoAy2b9/+K1VVXwjhiP1ohMiNlJAz8By6kdsj5tx5o1ZC8LChoaHrmpqa7EYV7e/vb6+trXnY7y+LEqL7UdQEb5IrnuLnjJ8ZyOR4USIxDKlIOMIpSkcHBvre0drajjnhRQHGaHV1dWdbW8MDmkYbBUHw8wgLz3fzQsu5yFbJ9vWqgFO7wlg0JjBW13ACmdGxsbF31tXVLXrOOSYnJ2+orKz8qXb6eugLIplMfj0YDL5X1TWDu53zFeB71KyYRDqFzzAvCjXaqjUZw2tg3M/WuKwmziiFjhxlLBa7tKqq6qFYbNyPilR4fujBra+vZ8PDw3/T2Ni4v1QLiFw6H0jA2O4QIdf/gBDhtalUisJ658KTV6K7kUNdbeCeeaGHXcFblZxjiqK84t577z2wGH+3OVlt52AqkyyfP9ygNIJPVVV9aGjonLa2tp7VXis7UqnUu/x+/7ewF+AJA24oT84Uh6pbGApQ6hA0CAlSwu6hVHpNXi5R2L9/v3/LlosekGXlSqRKYGDy4T/oNrAPKznTwSsVY5PjhmdpDlQShnt6el7V2dm5ZJh9MXR3d5d3dHQ8RAjboGlqAHsfawhqXY65s12afb1awP7iyryqqsoqBBNGBwcHX9XS0vLnYu5jNRU6iGVUWXacQ4/FYs1VVVWP64Q1zLZgWu2hhtwj1GK/XDoCw+tS+FdGdDUny18O+AIfL2bt3MaZptChVEOEyC8nxHsbIbqA6mnOiKUoyh0HDx68qRRDW2ZmRi6ltOxYJBKZ4C8BaQBVVf9NkqRX5XK5DnsxCYSAnarxdIU9h84rae19rlbYWKOU/u748eOva2trm1rqWazBNt9XdcUwbVfBQz9GKT3nVK8vuKDb29thVBgzvR3XT1jgTF1Q6Oh1hSKB9xBPxKHg9VxGrrPvSQ5TKa35N0KE9+RyGaPH2hRcJr89BBD+7EYU4VRCVhUrJaEbLX2KohwcmBy48cDeA0ecTLdijPlyudzXfD7P2zF+mDPH8bMBYw3fY9bEGQkrsmf0l2MICRWg2JlIpaePHDly48GDBw8Xu36rrdBzsvzTkMOiuOHh4Y/U19f/u8Z0audun+1uINTgfpiTX4vDYi7lVe7suSNHL1q/fv3BU7EvzjiFDiA0tnnz5q8zpt2o6yQEhW4198ujo6PvPXLkyI937Ngxj/zAKWKx4Z0+n9QWCkW/nH+tiYmJm6urq1GUdz56rjmbnd2iP13B0wO8KhuwFXLh2M9omvYhSZJ+iHUvYCxRxtQH09nsiwL+gGTyu3MLtySeDMiFvuTz+T56qtcXlebXXXfdHyVJuoR3QdiNpZUCHhSKlRA2t1W5z06+ymQmP1RWVv2Vxa4vy/K7CVHe7vGUnU+ITsfHY0bu3D2mPqeFxs72BUwUcLX7PJ64TthPhk8M/0tzc3Nspeudj0Ri4j2hUPXf4WyjWA7UuvBk51Jpzu7feaG2s8/nESCd6UnKtFufSD3zya2RrbNOSzE4ceL46xobW24rRcgdXQxQrhzw0HOyfHsoEHrjShfPovX+NSFkqzknEhOuqBGp4AXBRoGzgDRXYfBKd3P4lPcRSj2YgndKUMz9nrZgTPkjIcI2WVaJKIK32yiQO3bkyJGXrF+/vtfNG+/v73pFa2vHFx5++NFNC407PHToUENnZ+dbvV4vDn8zWIeKYW471cjvH7bd85iqqocnJyffUldX113oPq08coQRHYWJlcj1GhGK2S3mTPAsArSrbWtvb0docKE+8VUDnv/CCy/8fGVl5XsIIf45D85Z0RSm2XHSCl4QBwUGo8vwGr3iIUp95y/1/NibTU1NO/1+3/u8Xl87PE5eMOccp1ah47k1ot03OjT6paamppIUIY2PjzdqWnpnXV3r32NcKSIeiHCYqRWn+/rUr19aTj+Qmkl9sba29pGV7IdToNDvCAVCb1ipQh8eHr6mvr7+Fxh4Q0WTVRHgoXZ45kYtjB8prqXBWeKMyJkk5aanpz9eWVn51ZWsoxsodL+nNcbHx8PV1eFDlHqa0Z+oGzOemOrxSPcRIt7kZm96V1fXK9avX3/v6Ojo5fX19X9aVMMwFonH4zdHIpG3E0I2YDY5lCQnf+H0kvbwtr2/1d7HzpmjAF64Zg+Hc0ayfEITu5VpbbRZxc2r2TlPtJ02Fo0DiqIoHo9n/8TExHej0ehty9kAk5MTHy8vL/+sIAj5LW6OwNeKV+ACZk44OGlyE5wegHHR1ta2L5PJGIyCc2HuxUHp8u0Qe1uQrutaNitvCYVCJzF45QOtbRUVFTdGIpEPy7LchGgSb8+y7yFu5HHyGM6KyMORdl4Cvp/yuiAWRX7UQlXNYRb8Hee3+/HPMieSmQNUzNqEACJwx3t6et5aW1t7JBwOj5d6F8CzO++887B+H8pkMk2iKFIMV+HPxNcHb1RVlFmO+/y0Bm8HNaNi5l3bCWzs33OSFjupjx1YP06GMvv5YCyzZA7+js+dsH+OKHqShJCRY8eOvU2SpMNOxntOTo7fUFFReRulZkk45l6gpTj/uVYC/v7xbGi5RDF0Npv5WSAQumEl1wNUVb1HEIRrjX20iMF9kmJckFYKV8OENTPF5vP5sv29x+s7OztnO09WG2e0QgeSLFkv5tRH/b5g++TUJKmqrDHI5cbHx3fV1tbe5daC9vX1vaetre3r09PT/1lZWfneQteNx+M1Y2Njz2tpafmy1+ttBeEHb2/gAsxO4chHw0J42qc8wVLE4VwsH88Far6gxJ/xH/fk7JO37ExOlhBguq6PJpPJn+u6/oMF6DELwuIKeIwQ/WJeROTGpDfc32zBidXnz71fr9fz/4mi9+aCN7dKgIFZU1PztKZpbcV3NyztodmV90KgVNSGhoY+29TU9C/FPiZSJ1BMkiS9Q5Kk83Rd9zDGDH4HnlvHu1soZYA9jJ/zqEG+MQnwn/H9tzTb2tyQErO9LmlcG+kq+6x5q78Z+zQhivRgPD51pyiW/SwYDGKcZ8lIpRYC0isvfvGL3xQKhd4uSdL5uq56BEHw4H55ISQ30u05d/yMG+Zzw5ZMEbz0Gs2BF63y68Ag5IY/3g3vi+ZcA1hPrKW5H2E90jQh6sHjx4d+lkqldj/zzDOJXbt2QbmvGDMzQzdGIg3/pSg5Y5Yr3h+vISr0XIX+HjD6u62BQ3jWeHzmjl//+ndvXKwwdykMDw/vqK+vv1fTtIixpxb5x0UpdGNOsGpcQaSSrqrqN+65556PFlt7UAqc8QodGBsbOCcabf5tLpdpgzVskmrUnDhy5Mjz3Qq9T09PfjQUCn1WFD1DyWRyazgcHivihRhsZd3d3S9as2bN2yilL4BHaXlAxjhRPlyECwC7gsbfGZXNeYM/8Pv8YNsFhx1coXPBgUOBAw8L1wqry7quq7quPzU1NXWHLMu3Ock9jo6OXlhbW/vE9PQkBZEJFySFUEhhcQpMe9gZ9+/x+NDV8KbGxsafFPqM1YQsy7dIknQz7tHuVS4GxuaGxyyEQgJPVY1QX1cymbxyuV4qCr8GBwdbKysrtwWDwZcTQnYwxqrwmfZxtzyaY1fQPAoELHSPfP/ZFT7/d3aFD4WEsOVC9Sb4d5qmMUnyqoQohwgR747HY7eXl9eWnG+iGDz66KOB+vr61kgkclk4XHaN1xvYTgip1nVDsVJ4lHgu6zlmCYL4mTSpcaVZ79u+jnz97C1RdtrXOZieK3cCOJ8/V4SBQBA6C8WCT8/MTP08mUzvbm9vP1zM8xWLsbGxt0aj0R8wphnPbO/ZdwPcoLe47FkqlbyloqJ6RS3KqqrCabmOyxOSJ1sLKsQ8CwDDWABN1xLx6cSlvb29R0tRlF0sCt7/mYLe3t41a9aseYgQvT0WixlDFrJZ+Y4//elPNy6U814uBgePfrCpaa1REDczM/OuioqKJckW8gGrHoZcS0tLY2Vl5QtbW1uvkSSp0+PxICwvMsYE7o3zECcApc4POj/QxbCPcaGJIp5gMKiKpomuEEL6UqnUgYmJid+rqvpkZ2fnM0558E1q3NR7vF7v50TRAzZj6/EFeE4Oy4CZTojBH5lgTAugcN5cD6G3u7t729q1a4sxrFYN6XR6ZyAQ+H4ymQyEQiEUdSw/pj4PuvX7i9LPgyufTUxMPA8GlZMH3b9/f9mGDRvW67r+ilAo9HJd1y8WBOMdgg4Vz2K4ebyQMj+Uu1BYeLG9anmuOjpVeKhYURTm8Xh1QliKEHWKEO9MMhm/T5YTDx48ePQvbpzjUgIRGpD7RCKha2pqqq5hjF6saVpKEARJECQPIbqE57bzVCDkbl+3fOMoX8kDXNmb35tsjoD5VdA1TUmKojRNCJ2emRl9oLd3+DdHjx59ZCUebTEYHx9/Q01NzdcJIVXWPWmUilTX1awgiM6KSAiFzFJ0XQ3C+AF0PfPtgweP/PPmzZuXRas6MjJyaXV19R8kSfLy9yB55g/XKqgQ804zPHRcSxKEuyiVdhazXqVEwfs/k5DJZNopZXt9Pl+z6SFGWDqd/HwwGHY0YhUFT+vWnfMvdXV1/2TmpMWHJyamXrkUN3QhIEQdjUb1srKyjra2ts1er/eFfr9/cyAQwEzecoRBrVz0Qu8IGhOuHbYXwlz2P+N7/Bx/ryUSCVRePz08PPx7KPJNmzbZ287c5Dtf6Fq4d6d7zLAO9uzZA8GgcqGOlEYkEkE1s0OF6T4mJiaabBMAnVZNLfV8xt9ZXvWkm0+CPT8+Ps527NixNpvNNvj9/vWBQGBDMBhEi2A7IQRpJBhYdhje4P/f3r1Ax3mWdwJ/3u82V81FGkmWJdmKnYvJPchc6tISJ4GWJkADWECAwrYFTinQ3ZRTCufQpUtPWyjbXc4CeygllKRbUrsEQkhIUkDmToITEuIkhCS+JLpYkiWNRnP7vvkue5535pXHjmXJkmxLn/6/HB9bsvRZGk3m/72352k8H+fu6hrPAXkXdvKv0R/xvGB/rVb7hes6jx45Mv6YpmlDvBbJP/eVPrFyFojBwUGdH79rr732okql0mWadKFlJS7OZFouINI3E/mbiLTFPH5yGnt+8vzZcKlUeqZSyT+Sz1ce9n3/l+Vy+TAHHs8i7Nixo3Kmv2euP9E8dR8EP4nt2TPkDQzsck/xEnDic/sFrxW7d++On7gkwM/NpdzcBUFwBxFdHwSBDHS5B6nxwJz2i1TjE91A1vT3ysXKazKZzH+e6cd5Iaf9faxmvDa4efPm9mQy/mg0GuXFdH6yO6VS4V3JZPqry/nap6Ymbk+nM29u3A2Xpqby/6WtrW3Pcq55KvxClslkoul0Ol2tVltM08xZltURj8ezmqYlTNM0GtN6h2zbLsdisbyu65OxWKzw1FNPFfP5fHEpT3qABYh9+/bJEXt7e3skGo22VqvVaCKRSHqelxFCZFzXTcdisbjjOGY8Ho96nsfLO0XP8/Kapk06jjNlGMZMsVi0+/p+fnTPHnLO5brjWaTt3r2bX3N5psPatWuXxd2+TNPkm1WuOpl1XTcTiUR491+cg8eyrLjnebamacUgCPLFYnHSsqyjhmHMzszMVNra2o7mcjlHCDmSXe6W+dDiDau9vb0/5D4c9eNl8XqvetmZcAmjjkafDT72x33PTWG+cjUMLkIV6MrExER/Lpe7u1azW836brA8kX2ZEPGhpT5jZ2dnv29Z1m/zmh+Huq5rd+/Zc8cb1skLEQDAmtTYrPoVInod30zx7C3vtaq/ji+vG5zr1/yJsaPvWi17eUIZ6KxarV5oWfQ9ISKdvHbluvaDX//6t3YsdR2pVqv9jIuGlEpyTVpu1ikUile0trY+tiaf5QAA4ScmJiZ+u62t7Xu2bfN+E7nRmPcWqRLNyzQkhOBl0lUhtIHO0+8bNmxIdXd3f4eIeN0vbtv2LbOzs//tdNe+ebNQf3//c5VKpU31Dm8cT9m3d+/e38DUNpxj/P/xqttLALAaBEHAbXGvaLTTnWuc1Hw6YD6NnfXyZAJP1fPNgPo8IQQfj37r48OP33e2+57PJ7SB3iA3armue7+u69fxbknHqf7dnXfe9YnTGakXi8UNiUSCN55ozS0UeR2rVCp9IJlM8nQOAACsnGXfqJZKpffG43HuxGhxoKsz8qoux2JODPHn8WZoNbLn9Xem6/q+Umn8hmSyc2zlvuXlCXugz6lUSp+IRuMf5dbps7Olj7e0tHxmsce1JiYmXpnL5QZ578T09DRls9nmkqmTBw4cePHWrVufW96PAgAAVgpX7SSin/m+/yI+/qf6F6hRtwz1Bba5y41zpimr3/HrPqvXOWkNxsfH39XZ2XnrSn29K2HdBDqH8cjIyO90dXXdzf0cxsfH39bZ2cnHGBYibNvmjmof5WNkzVMwjSeIX6lU7o7H47zhAgAAVoFSqfTX8Xj8Y7ZtyxLHPMpWm+DmWhsvEOjNTYy4OJeq7ilM82emEL+52k4WrKdAlw4efPrqvr7zv0jkby4Uxv4onT51pbFGsY2fxOPxK5p/uKrGcGM9hZ8W/yaE4A5AAABwDo2MjGzv6uq6z/O8Vn6tVvX0m4oY1UvmnhiBJySiKuxVr05pUrFcomQ8EYyMjPzWmWoGtBzrLtDZ5OTkxfG49YVoNH7ZxMTITR0dvffM9yCOj49f1d7evo8PtNdLNWpzmyLU3V7jXCOH+p0PPfTQwLks/QcAsN4FQfA1InpDc9MfpgZlcyWJFwj05lr8fAOg6Tr5nvddwzB4T9aqsy4DXQkC72NE2n8dGRn5w+7u7jtP/OlwNbcbb7zxk4Zh/Bm3Q1UBPjMzw92EfNuuyTKnPJ1T7/4V4wIP9w0NDf35M8888/warHAFALBm8Wv2ddddN5DNZm8tFovixFr6vCYug5mrxHFXuvkisJGM/DF8bp00QclEkmu2F4+OT1z7q1/96uHVeLpp3Qa6Kh94+PDhV23atPHj+fz0l7LZjluansna4cOH+zZt2rTf87wYT9WonZFq2sbzuE1hvasZh32j6QqP1Kd83//q0NDQX23evLm51CoAAJwh5XK5R9f1+zVNe5FqgtPcelU1ezIMgzv3Ca3e8fWFTkjGqmPLgVtA4muGEG86Q1/+sq3bQG+2b9++9FX9l35yZnp0b2vrebdzIxU+1hYE7l1E+vVEvpi3DPVJNKZpZK11DvZCoTCYz+e/vZyewwAAcEqa53mf0TTtfdzsaqFOhcyr+XK0zgVcG10o5ftVh0FNF1SYLVCqhTfM09Tk0anL2tvbj6y2zXAKAr3e+EM2orjmmpe9XdP0ye985yffvvHGV3/SMFpuPlbmd/E9NprbQ1YqFTuRSKgGC4/Ytv2A7/tPV6vVccdxCpFI5TnXTY7v379/6iRT9CvZPAUAIKzEwYMHX9nX1/ftcrkc5U1wvF6u2srOx3d5llWQFzS6pvFGOSHm1s6rTkVO0RuaGdi2ffP+/fv/afv27eXV+iAi0E/wi1/84srLL3/Rn5Dw3uB5ImcakcZHnH6gM9UXm6fr+YlhmiaP2vmukBsp+EHguUKc2GJQNq2adRx3zLKMe123cvePfvTz767GNRsAgHNtdna2PZlM3u/7/pXqaDFPkS8WvyarpdNmjmvLG4NELPqjvXt/9KrVvi8Kgd6EOx/ZtdJ7tvSdfzORnzt+mv3kga52QZ5IjdJ5BzxXl1P9d/nJoSoN1Y++HbtutVoNuP+0ZUWHy+Xi7UePTt26efPmA4t9UgIArEdBEHyKiD7kuq7ggVPzEeNTaX79bv4zBzwPxly/RqZuVSYnJ7nn+9dX+2OLQG/gzRRCiL+NRqNvr9VswesqXBUul+MurPOPzueOP4gXPpQqxPkJViqV5qZ/VLlB/ntu9pJKZXhIPuI4zr8RlW6LRNDwBQBgMQ4fPnxdb2/vfa7rajwTOjw8TB0dHXKjcnNpV9k5/oQLNjYyy9diFejqqBt/rlxf9/3P67r+p4v5Ws61dR/oU1NT6Ww2+w6i4C+JxMbp6Ul5h8dPDJ6y0TRu/Tw/FejsZKGudsSrQjTqdz4S2bjqE+Vy+Qvx+N23CTFQPNdPCIBVAvtHYEHPP//8BT09PXt837+Cw7dQKFAqJTewySNqC027qxDn12n1Wq00bgaePnjw4Gu3bNny1IJfzCqwbgM9nz+cDYLUlZlMhqdqrnQcx+AfIIe5Ct3FPCHU1Mx8gT5XYpCIjh492hjxU+B53h1BEPyTaZrcDY5vHhdr2Q0LAADWukKhkIvFYh8zDOMDjuPI8q4KBzs3U1FHjeejQrx5VK5G67quz05OTn40l8t9dq08Vusu0BvN7t9BRO8nom08sPZ9Iq1pLoYDnddg+AmxkIUCXQU5996NRCKB67oPEtFfmaZ5/0LXBgCAFwqCIJnP5wfS6fQXeSZd7lT3PLm0ycVkeDC20A53pgrNMDVa5+vwL8Mwfmqa5o619Pivm0APguBFRP4HiLS3EQUttl0Vum7KETRvWuNQb14Pr+94rB9f4HDnuz8OelWcn2u489EIVfCfnwD85FD9cvnv1BR84y6Qp9g/IYT4m5D1rsbUKACcVY1a7T8hInM5/3BAPgUU1HukWxGqlKvyNVwI4R89erS3vb19ZDnXP9tCG+hBEPDwuoOIdrmuO2AYxnbPqwm+g+M1lvp0elQeEKs5LlmWQUFA5PsBaZqQv3OA8/s5kBUuA8i71Hkqp1HuVbbW4xE4hz3fIPBNgCoHyx8rhPi1bduvi0aja2IdBgBgtZqYmNiYTqfvN03zkuV+jTXPka/banSukc6v90E+n39ra2vrt4QQpeX+G2dT6AK9PqWeeo3j0Fssy7re911D04zG9+mXibRIEHi6EDqHuu15nqXrpmaaXFCAZDlXHplzWPMom9fV+egZU8fNmNp8odZg+He+SeDfeaqHP59H/rVa7clisfi7ra2t6JcOALBMjuN81TTNgVMeP1okHqHbji1H57PFWfkar2n6rbrQ37nIS6wqoQt03ihRrVaz6XQ6OjMzYyQSljY+Pu2l0+mkECJXqVS0TKbFjMWS59VqtctM0+RzaVsdx91smoYuhNygpvNPiUfoExMT1NnZORfssmqQYcgpd56a4Wb33PhereHwuXI1oNc07QEietNDDz00hg5sAADLU6lUPhGNRj/oOE6KR9WqLepScclXnlWNRqLkBz7pgn7+8MQvb+rv6Of6H6ezWXlVCF2gL4HcNc5dem644YZ+0zTf7Pv+ayzLuqAx+hYc3oxH3jwK57d52p6n7znUeRTPI3IOdf6YoaEh6unp4WmbF2ez2UeW8DUBAMAx3Czr+t7e3n8WQnTMzs7KZc7l4pKvTIZ6NDo5NDn8ls25zXzyaE1CoM9jdnb2mmQy+Wbbtt+p63qE11nU5jj1BFB3h81PLtVxrVqtfjIWi31kTT4rAABWkdHR0Zdu2LDhDs/zunnwxDvZm48ELxWvoTNTt4KSX/pIUk9+cqnXWg0Q6KcwODgY3b59+28kk8n/6brulbZty9F6W1vbcaUF1aY4DvPGWXYuENMlhEChGACAZXj22Wc3dXZ2fiuRSFymSrry7Cm/3i50znwhPOVeqVQ8U9fufeihR/9gx44dUwt9zmqGQF+EycnJ3tbW1g8T0fv43DrfIfL6DW+gUKUDGYd9NBrl0fl7YrHYPy/i0gAAMI8gCLg71jeI6HdU50t+zeVgbz4avBSyBRZ5vLN9eGhoaGdvb+/TS7nOaoJAXwQeqXOXnSAIvkZEr1eb5piqJsfTPzwtbxhGwDcAuVxueBGXBgCAeTiOc6tpmtcTUStvUlYDKN6YzDiUm80FWuMvAm6yomlUtet1Q/goU6VakXudZK0RoXmTk5Ovfuyxx34Qhm6WCPTTwHXfU6nUf+i6fi139eG1c97hzpvjGufNOdgP7N+//7LV3DMXAGA1GxwcNF6+46UfiVrxm4koo2qBqGJdqjyrpuvHNV05MdC5uAi/PidaknIGNRAkp+kd16W4FQnK5fL/mJ6e/j89PT2Tq/nxWCwE+mni9ZwtW7b8gIg2n/ipnud5tVrt9lgs9vbTvCwAADQUi0ffmUi03cJnzXkWlAOcg5j3KNXDXJAQgRxxN3tBoBNRpVymWCIu64kUirPU2dEpz5ynki17n3zyyZsuvvji0bA88Aj0JahUKn8UjUa5hrB8/Bpr5/xEc23bfl8sFuO/AwCA0yOGhoau6e7uvt9xbS3w6p+sGmcxVdWNR+sLTbm7tRoZpklT01NyZ7xpWfLPbdnWqampqd9qa2t74vS+vNUNgb4E+/btM6+88sq7eeq9uVoRlwwcGxu7ZOPGjU8u4bIAAOtWEASJQ4eeeUlf3/nfDMhvKZVLFLVix9bLm3qWM1knRJc1wOacLNB4hD/XF10TZGh6eWxs7OUbNmx4LGwPNgJ9iRrnIgd934/znWJjbSfYu3dvnDfQLfGyAADrDg+SLrjggs2pVOpXAfl6YbZAqZYUCdn7qR7eqsy2mnaXG5J5o9sCga56bjRUJgoTb3r84ce/F8bXaQT6Mnie9/80TXsrb5BrdGGbFkK0LuOSAADrzsGDB6/s3dwzyKN0z/NMy7RkFzTy6x0v1aY4DnM12m4eoc8XZHy8jXfE8w550zTd6enpD2az2VvXWtOVxUKgL0OhUPjNlpaWH+bzeZHJZPhKzwohzl/GJQEA1pVnn332JVu2bNkdkN/Hx8tUXXV51tyMysdC7W7nY2sczhzSskta45GaL8hUm2shBNcH+ftoNPoZIcRYWB9gBPoyBUHwQ8dxXtHol/590zSvXuYlAQDWheF4SIVYAAAZCElEQVTx4as2trd/KSD9Ktdz51qZakIjftvUrUU9DnyEmDe9qeDnLueChLwGM3XjLiJ6sxCisqgLrlEI9GWamZl5ayqV+he35lqGaXxDCHHjMi8JABBqPLU+Ojq6qaur646A/G08Mucw5jamCk+5c3/yU+Hp+KNHj1J7e7scjfM1eHDFx9nkprpolDfBPbRnzx4eaDkDAwP14u0hhUBfpiAIkkS0z/O8C4UQt+n62uyjCwBwNkxMTLQIUb04lWr9gtDNK3gtnDe48Tlznkbnt3lKnUfYalPcfKanp2VxL9Ugi0fmfC05Ja/pHHCP/vrXv37nRRdd9OjZ+N7ONQT6Csjn859Op9M3VyqVz8fj8fevwCUBAMJIm5l5tj+V6vs6EXXbtXqQc3QzniLnQFfBbhnH72I/GbVOzmvu+cIMtefaKT+Tp2w6M37kyJG3dHV1DYbxgTwZBPoKGBkZeVFXV9c+x3E+F4lE/mIFLgkAEDr5/Nirky2J2zxPdPD0uGFEyPO9ubVveQSYuGBMIDe/LRjoAVG5VJKV4JgX+PWd8CS4Jsjvb9iw4ZuhexBPAYG+QhzHeaRYLN7X6MrWjA9S+iv0zwAArEm2bd9kWcZtRL48XM7r5oYZkbXWOYS5eYppmDLMebTNR9cWmnJX29zltQxDTrlbhmkfOHDgjVu2bPle2DfBnQiBvkIcx3l/pVLJpdPpj6/QJQEAQsFxSu8zzfj/LpbyJgc3T6vLzWukyxG6OluudqbzNHoykVw40P16PXfuoMa12tva2mpDQ0O/39PT810hhB2KB+80INBXUKVSeTfquAMAHBME3ueCIHhvrVbT6yFO5AcuacIg1/fk5jU/8OVIncOeR+ZOzVn0CL1aqZAVjfBNQWlkZORt3d3dfERtXc6KItABAGDF7du3L37ppZd+PRKJ9BNR21zLU9kxjQvE+HJD3KnwOjr/4uNnPKovFouUSqXmdsXzqDyRSPBpo8np6ek/aWtr27Pi38gagkAHAIAVNTExsTGXy91ORC8lIrlVnQOZQ725dCvvZl+IqsWuulpyiMfjcZqamqLWVllpuzQzM3NjJpP5z4WuFXYIdAAAWCliZGSkv6ur6yuO41zc6HEhr62quKnfF4NH5I0RuPxwDvFcLidLwPINgmmaw0NDQ+/p7e39NndWXcw1wwyBDgAAK0Hk8/ldiUTiC5qmZXgkzsGrwnyuhWlTT/OF8IieR+i8ts43B3w9/sWj9VQqlZ+enn5Ha2vrtxa6znqBQAcAgGXh9qf9/f3/i4j+mKfY+dgZB7iaUudgnquz3ph657ebQ/5kVNtUDnFeb1etU4UQM8PDwzf29PSsm6Ixi4FABwCAJXvyySf7tm3b9jkiusb3/agK32b8PhXqHMqnM+1u27b8HA70fD5P6XS6MDo6+nvd3d0/XvIXHVIIdIBzi/8fXPdrf7D2DA0NtWma1scNVlzX3cSFXXiNm3ehN42kZXirkfZ8o/ZT4RuBsbExuREulUodLJVKO5LJ5JG194ideQh0AAA4LRzm2Wx8IB7PftbzPI2n1mdmZnj0LK/Do2pVQKZ5V7ss7SqEHLHzx3BInwofWeOPjUQifNPLZVzfLYSYOK0vdh1BoAMAwKIdPHhwW19f98eIzLfy5vVFf+JJ8MhdNVfhmwJ1RI3DXnZMqx9r4zD/73v37v27nTt3csGYdVk0ZjGW9cMAAIB1Q0xMTNyQy+U+VbWL2xzbpVQqsyLfPJ8tj8Vi8lqyjnujohwRHa1Wqx++6667/jXsvcxXAgIdAADmNTg4GL388svbW1uTHwwC/c9d1xXHKrzJPitLpqbpOcQ51Hn9nafkh4eHaePGjeVSqfTalpaW7y35H1hnEOgAAHBSQfCT1snJC69sa0t9ish8MZEveIqcp8YzmQwJsXClt1Ph9XGeVudA55sENeVeq9X2+77/xmg0+uvT/NGs6+6WCHQAADjO7t27rV27enTX7f+4YVgfcpyqxqHLVdtYEIjjyrguhwpxbs4Sj8cDIQQXinmXEGJqOdddjxDoAABwnKGhoRu6u7s/ReRvKxQKgqfCeQNboVCQO9k50BcqCrMEJdd1/9Y0zb/HxrelQaADAIA0Ojr60g0b2m72PHqtrutxXuPmo2WmGZmbHudz4XyczHGcuRH7UvF1DMPwa7XaL8rl8kfQYGV5EOgAAOtcEASJSqXy3lhM+wCR2ccPh6rsxlPh0WhcrnVPT0/LETqPzhthvNxHznNd9zNPP/30py+++OLR5V5svUOgAwCsY6OjowPZbPa9kUjkt4l8g/uU807zxbQ2Dbz6kXChH9vtrsq88jlyVQLR8+ulX5vLvmokjhw4cGBXR0fHUy0tLWEsFnPWq0Ai0AEA1hkekR869MgFfX1XfoKIriKibn4IVBg3tz09pUZiu54rj50lk8m5tXUezWeyWapUK3O12GWlOBKB73nfmCpN/cXe+/YeGRgYKK6zh/+MQaADAKwjzz///AWZTOZDyWTy3Z7nyQzg0fPJmqcs1ESFp925ZzkfYWO8rq5KuvJNwWypSNFotD7i13QOnGHbtv/hpz/96Vd27tyZX0cP+1mBQAcAWAcmJyd7k8nkByzL+lPXdeL1BirHptZPbHHKx9S4Hvti8fl0Dm/Gn8thH21UfxNEQbVa/fHhw4f/ctu2beiSdoYg0AEAQmpwcNDYunVrRzabfncymfqzIPAy1WpVcJnVer10S46kOcz5WFpzj/LmgF8IH2dTR9t4Ex2fV1cb53RdPzQ5OfnZslm+ZXNm8/RC14KlQ6ADAITMvn374olEoqOtLXtTe3vnTUR0cRB4QtVJ56lxrpderTrHb1TTtNPqV86jcA5+VQqWbwr4GrwWr2maHQTBnpGRkX/o7e39Zcge4lUJgQ4AECIHDx68MpFIvLu9vX2AiDKeVzM4wHlUzhvVOIBbW1sb3/ELa7FzKKvNcU1NUubF1+ZAHx0dpWw2y/8OT6//qFqt/mM2m/1GiB7aVQ+BDgAQAlzdrb299T2WFX0NUWCoOum8+5zXwpun0zmEeapd10253s0hz283V39baEOcwjcJvLudQ71arQ4HQfCPIyMj/3r++eePh+BhXVMQ6AAAa5N2zz33JPv7+9+ezWb/0DTNFwdBIHiEzRZ1jryxu/3EM+L8Nt8Q8FlyNQLngFfr4wqfWqu5NbIM0ynY9i1Hh4c/v3Xr1sfW5sO59iHQAQDWmKeeeuqKdDp9fWdn5x8T0UYiijSPtBcT5s04vHk9XG2M4yDnX3xN/p3DvHmT3NTUlJy2d9xaYBnm/c8999znHnjggUGcKT+3EOgAAGvA5OTPekql9tf19m76AyLjxURk8Ii8+UtXwcvhzGHMddhPpb7T3TjuBkBtdGM8Bc/d0HhKnd/Pwd84ysaD8yenp6c/PD4+/vi2bdsOroGHMPQQ6AAAqxS3Md2xY8erM5mWtyUSqauDwOuo1WoaBy2PpjnPOZDrZ8rrZdtkNTax+Jf25qIySvMxNh7t8zo8h3lLSwv/Iw9PT09/+tFHH/2PnTt3uqv0oVuXFv9TBwBYm856Te3lev75518WBMHre3t730xEHZ5XS3KA88YzHlWrgi8c6Cq8OXAbx8UWX7qV+5T6vvylbgaYCnm+WZicnKRcLsflWQ9NT09/3jCMPalU6uhyv0dYeQh0AIBz7J577olceumll6VS1hvi8dYbTNO8xPNqwnEcwaHKQc7FW7gaW0dHhwxgnlIXor4zXTU9UeHO0+OyUlujctt8ju121+c+RI30GwFvE9GRkZGRz9f7o8NqhkAHADiLdu/erZdKJbOzs9O65JLzXpnNdr+ppaVlB5Gfsm07E4lELA5VDlu1vp3P5+U6ttp1rjarWVZ0bjStjp6dznS7oqbYFV3Xp4goPz4+/tcjIyPfvOqqq1B3fQ1AoAMAnGEc4gMDA97ExERLoVB4WVtb203pdPoa7nJWqZQMLvqizo3z6JvDnEfXHNw8+uZ1bH4/Bzv3Iz9WrrW+cU1thlNT54xDmm8ATkVNrTNN03h93LZte2+hULhl7969dw4MDPAaeX0+HlY9BDoAwBmyb98+k4gua+9sf3Vne9u1kUjiciJqd/2aIJ8D16K5puHzaWx2U2fDVXlVw+JLE7l+fe3cMi35tlNz5I1AIp6Ye5s/N2JFZJtTQzfkx/A0vldz+XcO8plSqfQv/Kuzs/PRM/RwwBmGQAcAWCZugqJ2fBeDYmd5onx9S6bluqgZ/V2iwPLJ57Zlcrg816ZUvvxqpwx03/PkVyZ3rmsvLNPqeDUyjXqws6pdrVeFI0EzhRk5yucg93xPbqbjkX8mnZGBHjEtefRsZGTk/27cuPGLQsj1cjgeP+hrZoYCgQ4AcPrE7t27OUm9a6+9tmuiMHHpBZsueH2tVnuVGTG2aKSTF7hCE/UQDiiYaymqqrIZmi7XwE81Qg/k0bT6cTRZllUdR2u8r1Kz5eicR+Nq9M3hzb3H/aDePY3/4/fxqD0WiQY+/4N+cPvo6OiXenp6BuWXt/A8AawBCHQ4l9bccSJY33gKPZ2OXxaNtryivT1zSSSSfG1AfkaQFq15jnw9LRaLco27JdkiR8zc4KQ52JXA82Ut9cVMuTevjc9tetMEcVkZDmxFhXq5UqZ4LE5HJ49Sri0n7ykE0WMzzsy/T49M33Ho0KFn+J04Rx4uCHQAgHk88cQTXYlE4tJ4PP57uVzuFUR0YRAELY1QFRze3Pubj4ipjWu8EU2tc/OoWJVh5Y9hqgEKf8xC3cxUKVaZyCcpHOO49dKsfKSNd8HzyFyFOi+nC6KJI0eO3O667q29vb1cY70+3IdQQqADwHqlZojE4OBguq+vb4NlWRfF0rGXZxPZlziOs9WyrB7P8/RGKPO5cBnIqs45byxT4a2oj2Fql7na0MY3AirgT/y8k1E3CmpUrkJd7U7XdJ0q1QrFojH56aK+3jtcLBbvmZqa2vPAAw/sHRgY4PchyNcBBDoArBtf/vKXo/39/RuFEBuSyWRHpi3zxpaWWLdH1GdRpJOIYgH5YrY4K+ug81o4U6VWa7ZLkYhFruuRYepybVx1IeNw5xG3On7G+M9Kc/tSJsN5gRKt8vqNl2n+s9JcFc4wDP6L8dly4VuzU7O3jY2N/Xz79u3l5o16sD4g0AEgVHidu7+/n89w6cPDw/2+ZZ3XGo9fYRjG5ZFIZFPNcztM3Uh4gU+OVxWWYZHnenK3OG8kkwVatHqQC9LkKHluGl1o5HsBabogt+ZRIHgd/Pg+4jzNLo+Eed5Ju54dV2Z1kTXXm78uUR9tz9SIxmanpu51HOfOrq6uvXyPwN/79u3ba6H6ga6sUO/bQaADwJrDo8+rr7468uCDD3brOb0ja3ZcGInHtyZ0fXM0Gj0vGo32ElGP+sZ4LHyyb9Knxro2aTI0FbU7nAOdcQjLOumkk240jo9xrGr1Ubgq9KJ2sKujaervmkO++WP4xoCPkKkz5NxbnP+e3+b38+fzdLogLvoSTM2Wiz8rFSa/NjNj70WHMzgRAh0AVh0O7JaWFqutrW2TYRhprqjW1tbWR0RbgiDYEo/HN/m+36ppGvcH5dE4V0epn/Pm/4L6LzXSnk/VrRKfBjOEMbcTvRmPwlWlNqkx683vlxvezHqVNrVWrta6uea6qqPeHPjNZVlltzThy3+X18F5VK+KvkTMSOMepPbY0NjYD8aGxv79wIEDDw4MDDir7ocFqwYCHQDOCC53umvXLmPPnj1BUxBpQRBkxsfHs/l8Ptna2nqpbdupzs7ODs/zNvq+3xmLxbqq1eqGaDTKQZ5Sm8caU99C1R2Xu8qbwps1bx6T3cmaiq6c3AtrhvCZbd8N5OerUFa9wNWmNlVqVdfF3Hq2CnYu4MKfp/qKc1BzwDN+P++M51Kv8hqCSBdyDZy/kKPVavHpmuv9YGJ88tvT09MPO44T7Nixo3JGfkAQOgh0AFgs3g2uX3311eZzzz0X3bRpk2HbdrpcLseq1WrWsqy2aDSaMQyDG4wkiYiro7UTURsRbWz84j/zlmxV9qzMo+tqtWoYhqFxSHPQqSlqNXVdqdQzjcNRhXZzoKswbz6TvTj1QFejekUE9S+vuc948w0Dq/cj92Rwq3amjL92tU7Om+T4z2pne53G/2jBtqsF369+s1RyH/d9/6dPPPHE403nwkO91gtnBgIdIESCYDBKdPV5RNWNxaLbruuiJxZLxMrlYpQDs1p15LbrWq1mGoahx+NEjmOYsVgs4nnVmGlGI47jxixLj3HJUtclroZmGkYQIzI5iHmKm39xoXDeOVbzfV/XNE078RiW53lCNQ5RAajOYss16sZUdfP0NI9uObSZGuE2h6V6P09x89+rM93NzUma23+qa52Kmp5XNw/qa2M8XS7/nqfGm5qgHJslEHNT5rLNaWNGgEf5hsarADz4FlMV137aCIKnHDd43K4UHnNd/envf//7z+/atUs89NBD/oEDBwSm02G5EOgAIca7njdv3txu2/ZFRHRRMpk8X9f1rclk8jzfr+Y0LcojZznS5N7anKPlctGIRCKCg5aLppyMCrQgEMeNYsvlMrW0tMyF9NTUlJxm5l8nG+1ygPMolkfgHNw8ulXT3M3FWVQw898zdTNwsrPcTd/LktRH3vU1eLU27gX1zXPNa+D1oqrHne+2idznKhXnyZrnPlItOweI6MflcrnU19c3K4TgaYY1Uxcc1h4EOsA6xWvc/f39yUwmk6pMVXraeiJbNC15nmVZWzwv2KzrOk+P805xbgnG0+eNaWAhh51EvsUz52pkq36fr2AKF1yRO8UbhVmap6Gbj3jx53PQ8zozj8JVRTX+GLku3ijmwn9ubg/aPNJWo/SF2oc61WPtSWXZ9aZXxPo58cALKNB4FzyR4FSflqHt1Q6RoNFCvvBL3bfHPC9yKB6Pj957773T3CaVP3j37t3awMCAWh8HOOMQ6ADAOLFObNIhO009++yz6Vwu114sFjuF8Dek04lO39c7olE9FQT6RtPkzWu1DURmBxFl6mvnviB51Mp3ieSh7vrB7voUdHPI8ftVJTPN8zy5jt5M3SA0b45TIX+sclp9hkHIS9cbZPHswbG3F6yUViSiSSIa9TzviOu6E5rmzBZs53CtUjviuM6BuBkfzeVyk81dyXDuG1YTBDoALMdxm7c44M4/vz3puol4IpGwZpyZTnfWTaRbtYwhYmkhYslIRK7FR8rlshWPx7Nc0pzIizaOoEU8zzV13eBU5xltXq83iPjtWiPpTZ9X2HmJm0jMNr54TnJ+n+P7okqaZ5OvO67rThL5tl2rlXWhF2x7dobIKpimVh4fn3RSqdSBoaGhcj6fL56wIU3dfQCsGQh0ADib5l5zGlPSc9PTW7ZskVvLZ2dng507d/Ko/cT1ZvW5J6tLrg0ODsrPn5iY4GNycvPf7t27rS1btgQHDhzwUdMcwg6BDgAAEAIIdAAAgNVvwdoECHQAAIAQQKADAACEAAIdAAAgBBDoAAAAIYBAh5OpV+YAWBieKwCrBAIdAAAgBBDoAAAAIRDGQF/wrB4AAEDYhDHQYe3AzRcAwApZr4GOjTwAALASVs3AZL0GOgAAQKgg0AEAAEIAgQ4AABACCHQAAIAQQKADAACEAAIdAAAgBBDoAAAAIYBABwAACAEEOgAAQAgg0AEAAEIAgQ4AABACCHQAAIAQQKDDaoGGOQAAy4BAX1kIJQAAOCcQ6AAAACGAQAcAAAgBBDoAAEAIINABAABCAIEOAAAQAgh0AACAEECgAwAAhAACHQAAIAQQ6AAA4YDCVuscAh0AACAEEOgAAAAhgEAHAAAIAQQ6AABACCDQAQAAQgCBDgAAEAIIdAAAgBBAoAMAAIQAAh0AACAEEOgAAAAhgEAHAAAIAQQ6AABACCDQAQAAQgCBDgAAEAIIdAAAgBBAoAMAAIQAAh0AACAEEOgAAAAhgEAHAAAIAQQ6AACsNxoR+cv8pjk/g2VeY0Uh0AEAAEIAgQ4AABACCHQAAIAQQKADAACEAAIdAAAgBBDoAAAAIYBABwAACAEEOsC5sxJnYQEAJAQ6AABACCDQAQAAQgCBDgAAEAIIdAAAgBBAoAMAAIQAAh0AACAEEOgAAAAhgEAHAAAIAQQ6AABACCDQAQAAzqyzUhUSgQ4AABACCHQAAIAQQKADAACEAAIdAAAgBBDoAAAAIYBABwAACAEEOgAAQAgg0AEAAEIAgQ4AABACCHQAAIAQQKADAACEAAIdVpuzUvMYACBsEOgAAAAhgECHMwUjbQCAswiBDgAAEAIIdAAAgBBAoAMAAIQAAh0AACAEEOgrD5vBAADgrEOgAwAAhAACHQAAIAQQ6AAAACGAQAcAAAgBBDoAAEAInOlA5+sHIXicAAAAVrUzHegAAABwFiDQAQAAQgCBDgAAEAIIdAAAgBBAoAMAAIQAAh0AACAEEOgAAAAhgEAHAIDFQF2RVQ6BDgAAEAIIdIBzDyMfAFg2BDoAAEAIINABAABCAIEOAAAQAgh0AACAEECgAwAAhAACHQAAIAT+P1qv5sGr126hAAAAAElFTkSuQmCC;" vertex="1" parent="1">
          <mxGeometry x="48" y="417" width="86.25" height="86.25" as="geometry" />
        </mxCell>
        <mxCell id="1TXEtfgUbeghGvBHldOa-27" value="Development plan" style="text;html=1;align=left;verticalAlign=middle;whiteSpace=wrap;rounded=0;fontStyle=1;fontColor=#FFFFFF;fontFamily=arial;fontSize=27;" vertex="1" parent="1">
          <mxGeometry x="134.25" y="419.25" width="310" height="84" as="geometry" />
        </mxCell>
      </root>
    </mxGraphModel>
  </diagram>
</mxfile>
